<?xml version="1.0" encoding="iso-8859-1"?>
<!-- Generator: Adobe Illustrator 17.1.0, SVG Export Plug-In . SVG Version: 6.00 Build 0)  -->
<!DOCTYPE svg PUBLIC "-//W3C//DTD SVG 1.1//EN" "http://www.w3.org/Graphics/SVG/1.1/DTD/svg11.dtd">
<svg version="1.1" xmlns="http://www.w3.org/2000/svg" xmlns:xlink="http://www.w3.org/1999/xlink" x="0px" y="0px"
	 viewBox="0 0 846.694 584.613" style="enable-background:new 0 0 846.694 584.613;" xml:space="preserve">
<g id="breezy">
	<path id="breezy_1_" d="M159.982,251.497c0-5.301,4.252-9.536,9.553-9.536H578.02c51.309,0,92.995-42.753,92.995-95.318
		c0-52.53-41.686-95.25-92.995-95.25c-37.022,0-70.481,22.479-85.283,57.28c-2.119,4.785-7.763,7.022-12.531,4.992
		c-4.853-2.065-7.108-7.642-5.077-12.495c17.832-41.825,58.193-68.882,102.891-68.882c61.79,0,112.118,51.325,112.118,114.355
		c0,63.098-50.328,114.389-112.118,114.389H169.535C164.234,261.033,159.982,256.764,159.982,251.497z M599.536,398.106H91.239
		c-5.266,0-9.518,4.304-9.518,9.57c0,5.232,4.251,9.535,9.518,9.535h508.296c39.913,0,72.427,33.252,72.427,74.149
		c0,40.894-32.513,74.147-72.427,74.147c-5.25,0-9.554,4.303-9.554,9.604c0,5.266,4.304,9.501,9.554,9.501
		c50.43,0,91.48-41.825,91.48-93.253C691.016,439.965,649.966,398.106,599.536,398.106z M680.568,0c-5.249,0-9.553,4.303-9.553,9.57
		c0,5.267,4.304,9.536,9.553,9.536c81.067,0,147.023,67.504,147.023,150.429c0,83.029-65.955,150.499-147.023,150.499H9.553
		c-5.267,0-9.553,4.303-9.553,9.57c0,5.232,4.286,9.535,9.553,9.535h671.015c91.584,0,166.127-76.076,166.127-169.605
		C846.694,76.076,772.151,0,680.568,0z"/>
</g>
<g id="Layer_1">
</g>
</svg>
