<?xml version="1.0" encoding="iso-8859-1"?>
<!-- Generator: Adobe Illustrator 17.1.0, SVG Export Plug-In . SVG Version: 6.00 Build 0)  -->
<!DOCTYPE svg PUBLIC "-//W3C//DTD SVG 1.1//EN" "http://www.w3.org/Graphics/SVG/1.1/DTD/svg11.dtd">
<svg version="1.1" xmlns="http://www.w3.org/2000/svg" xmlns:xlink="http://www.w3.org/1999/xlink" x="0px" y="0px"
	 viewBox="0 0 521.962 468.364" style="enable-background:new 0 0 521.962 468.364;" xml:space="preserve">
<g id="celcius">
	<path id="celcius_1_" d="M280.517,100.275c-31.429,34.974-47.091,82.891-47.091,143.682c0,62.238,14.801,110.534,44.405,144.854
		c29.604,34.389,71.946,51.567,126.988,51.567c36.558,0,70.156-4.647,100.724-13.975v26.781
		c-28.778,10.189-64.784,15.18-107.884,15.18c-61.238,0-109.397-19.724-144.543-59.242c-35.181-39.518-52.771-94.801-52.771-165.783
		c0-44.268,8.399-83.339,25.163-117.108c16.799-33.77,40.965-59.863,72.461-78.245c31.498-18.381,68.09-27.573,109.845-27.573
		c42.513,0,80.586,7.918,114.148,23.821l-12.221,27.435c-31.772-15.903-65.163-23.855-100.171-23.855
		C354.939,47.814,311.911,65.301,280.517,100.275z M166.472,83.27c0,45.852-37.315,83.167-83.236,83.167
		C37.35,166.437,0,129.122,0,83.27C0,37.315,37.35,0,83.236,0C129.157,0,166.472,37.315,166.472,83.27z M138.76,83.27
		c0-30.741-24.853-55.526-55.525-55.526c-30.637,0-55.49,24.785-55.49,55.526c0,30.602,24.854,55.455,55.49,55.455
		C113.907,138.726,138.76,113.873,138.76,83.27z"/>
</g>
<g id="Layer_1">
</g>
</svg>
