<?xml version="1.0" encoding="iso-8859-1"?>
<!-- Generator: Adobe Illustrator 17.1.0, SVG Export Plug-In . SVG Version: 6.00 Build 0)  -->
<!DOCTYPE svg PUBLIC "-//W3C//DTD SVG 1.1//EN" "http://www.w3.org/Graphics/SVG/1.1/DTD/svg11.dtd">
<svg version="1.1" xmlns="http://www.w3.org/2000/svg" xmlns:xlink="http://www.w3.org/1999/xlink" x="0px" y="0px"
	 viewBox="0 0 835.146 526.197" style="enable-background:new 0 0 835.146 526.197;" xml:space="preserve">
<g id="cloudy">
	<path id="cloudy_1_" d="M715.662,526.197h-72.563h-0.243H274.595h-0.103h-89.294C82.891,526.197,0,443.27,0,340.999
		c0-102.341,82.891-185.233,185.198-185.233c81.515,0,150.671,52.702,175.456,125.887c2.341,6.885,4.269,13.907,5.783,21.169
		c2.616,12.29,3.959,25.06,3.959,38.177c0,4.887-0.207,9.741-0.62,14.561c-2.547,13.39,18.382,17.21,20.344,1.892
		c0.206-2.616,0.379-5.301,0.482-7.951c0.104-1.997,0.172-3.995,0.172-5.99c0.034-0.86,0.034-1.652,0.034-2.513
		c0-4.097-0.103-8.124-0.344-12.187c-0.034-0.998-0.172-1.996-0.241-3.063c-0.275-2.995-0.517-6.058-0.861-9.122
		c-0.103-1.033-0.275-2.065-0.413-3.065c-0.413-3.269-0.895-6.574-1.549-9.81c-0.069-0.585-0.206-1.17-0.31-1.756
		c-0.757-3.958-1.652-7.883-2.616-11.772c0.035,0,0.035,0,0.035,0c-1.721-6.781-3.753-13.424-6.127-19.898c-0.035,0-0.035,0-0.035,0
		c-18.967-51.634-58.072-93.631-107.745-116.419c0,0-0.034,0-0.034-0.034c-6.713-3.064-13.666-5.783-20.758-8.124
		c-0.482-0.138-0.929-0.31-1.377-0.448c-1.893-0.62-3.718-1.204-5.611-1.721c-1.102-0.344-2.203-0.62-3.236-0.93
		c-1.721-0.481-3.408-0.894-5.129-1.307c-1.411-0.345-2.823-0.689-4.303-0.999c-1.412-0.344-2.892-0.688-4.372-0.964
		c-2.823-0.551-5.645-1.067-8.468-1.549c-0.413-0.068-0.86-0.068-1.308-0.172C260.516,55.628,347.47,0,447.4,0
		c145.335,0,263.098,117.763,263.098,263.098c0,1.308-0.104,2.65-0.104,3.959c1.756-0.104,3.51-0.172,5.266-0.172
		c-2.443,0-4.921,0.068-7.366,0.206c-0.413,0.034-0.826,0.104-1.239,0.138c-2.065,0.068-4.063,0.241-6.127,0.447
		c-0.379,0.07-0.862,0.104-1.275,0.138c-1.997,0.241-3.958,0.517-5.955,0.86c-0.379,0-0.724,0.07-1.032,0.173
		c-2.101,0.344-4.131,0.722-6.162,1.136c-0.241,0.034-0.414,0.104-0.62,0.138c-2.203,0.447-4.372,0.998-6.506,1.583
		c0,0-0.104,0-0.104,0.035c-25.507,6.849-48.123,20.792-65.644,39.518l-0.035-0.034c-4.75,5.059-9.122,10.499-13.115,16.248
		c0.034,0.034,0.034,0.034,0.068,0.068c-9.879,14.216-17.142,30.396-21.135,47.745c-2.065,12.221,16.489,16.902,20.584,1.962
		c2.754-10.774,6.885-20.964,12.358-30.327c3.821-6.575,8.192-12.737,13.116-18.417c21.962-25.232,54.216-41.17,90.188-41.17
		c65.957,0,119.484,53.493,119.484,119.45C835.146,472.772,781.618,526.197,715.662,526.197z"/>
</g>
<g id="Layer_1">
</g>
</svg>
