<?xml version="1.0" encoding="iso-8859-1"?>
<!-- Generator: Adobe Illustrator 17.1.0, SVG Export Plug-In . SVG Version: 6.00 Build 0)  -->
<!DOCTYPE svg PUBLIC "-//W3C//DTD SVG 1.1//EN" "http://www.w3.org/Graphics/SVG/1.1/DTD/svg11.dtd">
<svg version="1.1" xmlns="http://www.w3.org/2000/svg" xmlns:xlink="http://www.w3.org/1999/xlink" x="0px" y="0px"
	 viewBox="0 0 835.163 468.641" style="enable-background:new 0 0 835.163 468.641;" xml:space="preserve">
<g id="cloudy-rainbow">
	<path id="cloudy-rainbow_1_" d="M485.026,69.432c-55.714,0-108.021,20.276-149.105,54.94c-3.373-3.615-6.902-7.16-10.517-10.499
		c43.821-37.418,99.897-59.242,159.622-59.242c93.219,0,177.521,53.253,220.31,135.766c-5.406,0.447-10.69,1.068-15.87,2.099
		C648.485,117.522,570.843,69.432,485.026,69.432z M360.035,155.904c2.616,4.2,5.078,8.537,7.401,12.943
		c32.288-28.296,73.77-44.785,117.59-44.785c63.166,0,121.412,34.355,154.147,88.882c4.131-2.686,8.382-5.164,12.755-7.436
		c-35.353-59.036-98.452-96.248-166.902-96.248C438.606,109.26,394.613,126.506,360.035,155.904z M485.026,14.803
		c116.179,0.068,220.034,72.22,264.785,179.449c6.282,1.549,12.444,3.511,18.364,5.887C724.01,81.067,611.411,0,485.026,0
		C407.384,0,334.94,30.672,280.344,81.86c4.596,2.444,9.054,4.957,13.443,7.676C345.284,42.72,412.788,14.871,485.026,14.803z
		 M776.937,246.781c-5.783-3.477-11.876-6.47-18.297-8.949c-13.322-5.13-27.745-8.056-42.891-8.056
		c-0.413,0-0.808,0.069-1.223,0.069c-5.284,0.035-10.465,0.516-15.576,1.239c-13.27,1.859-25.835,5.956-37.35,11.807
		c-4.439,2.273-8.691,4.785-12.736,7.573c-8.605,5.853-16.505,12.668-23.304,20.482c-4.957,5.715-9.363,11.876-13.167,18.383
		c-5.422,9.397-9.604,19.553-12.358,30.327c-4.097,14.939-22.634,10.292-20.55-1.928c4.009-17.384,11.257-33.495,21.083-47.746
		c-22.788-30.774-60.378-52.633-104.216-58.761c-6.386-0.894-12.891-1.411-19.536-1.583c-1.737-0.104-3.407-0.31-5.145-0.31
		c-32.427,0-62.445,8.64-87.143,23.373c4.165,16.214,6.351,33.22,6.351,50.705c0,5.577-0.275,11.051-0.688,16.523
		c-1.945,15.32-22.926,11.43-20.362-1.928c0.413-4.818,0.654-9.707,0.654-14.596c0-13.115-1.394-25.851-3.959-38.209
		c-1.532-7.194-3.511-14.251-5.817-21.136c-2.375-7.022-5.319-13.804-8.486-20.413c-2.237-4.682-4.664-9.26-7.246-13.7
		c-6.85-11.67-14.923-22.479-24.045-32.358c-3.356-3.615-6.851-7.092-10.482-10.397c-9.639-8.915-20.241-16.764-31.601-23.511
		c-4.458-2.581-8.968-5.026-13.649-7.229c-24.251-11.6-51.29-18.244-79.965-18.244c-0.826,0-1.687,0.138-2.496,0.138
		c-7.694,0.069-15.232,0.757-22.668,1.721C69.691,112.427,0,189.674,0,283.407c0,102.342,82.926,185.233,185.233,185.233h89.328
		h368.606h72.582c65.955,0,119.414-53.459,119.414-119.45C835.163,305.646,811.773,267.676,776.937,246.781z"/>
</g>
<g id="Layer_1">
</g>
</svg>
