<?xml version="1.0" encoding="iso-8859-1"?>
<!-- Generator: Adobe Illustrator 17.1.0, SVG Export Plug-In . SVG Version: 6.00 Build 0)  -->
<!DOCTYPE svg PUBLIC "-//W3C//DTD SVG 1.1//EN" "http://www.w3.org/Graphics/SVG/1.1/DTD/svg11.dtd">
<svg version="1.1" xmlns="http://www.w3.org/2000/svg" xmlns:xlink="http://www.w3.org/1999/xlink" x="0px" y="0px"
	 viewBox="0 0 700.792 835.146" style="enable-background:new 0 0 700.792 835.146;" xml:space="preserve">
<g id="cold">
	<path id="cold_1_" d="M222.117,573.873V78.795C222.117,35.353,185.749,0,141.033,0S59.949,35.353,59.949,78.795v497.418
		C22.702,602.788,0,646.265,0,692.427c0,78.693,63.994,142.719,142.668,142.719c78.692,0,142.668-64.026,142.668-142.719
		C285.336,644.578,261.394,600.24,222.117,573.873z M142.668,814.044c-67.143,0-121.532-54.457-121.532-121.618
		c0-44.613,24.096-83.614,59.983-104.785V78.795c0-31.876,26.798-57.625,59.914-57.625c33.081,0,59.932,25.749,59.932,57.625
		v506.988c37.693,20.619,63.253,60.619,63.253,106.643C264.217,759.587,209.794,814.044,142.668,814.044z M130.328,115.904H84.682
		V97.9h45.646V115.904z M128.09,283.786H84.682v-17.968h43.408V283.786z M114.148,171.841H84.682v-17.934h29.466V171.841z
		 M114.183,227.849H84.682V209.88h29.501V227.849z M114.166,339.794H84.682v-17.969h29.484V339.794z M130.328,395.766H84.682
		v-18.038h45.646V395.766z M114.148,451.704H84.682V433.77h29.466V451.704z M219.295,691.808c0,43.236-34.991,78.278-78.262,78.278
		s-78.279-35.042-78.279-78.278c0-32.256,19.467-59.966,47.366-71.911V496.764c0-15.938,16.472-16.454,33.752-16.454
		c17.298,0,28.933,0.515,28.933,16.454V620.31C200.172,632.53,219.295,659.897,219.295,691.808z M626.575,469.639l-26.471,25.852
		l25.989,0.344l0.155,6.988l-25.457-0.206l-0.499,0.206l26.283,25.956c-0.964,2.168-3.305,3.339-4.751,5.129l-31.67-31.291
		l-90.567-0.311l-0.173,0.138l48.21,48.366c11.738,0.515,19.844,1.204,31.462,2.168l-0.499,6.747
		c-8.296-0.275-16.212-1.307-24.338-1.652l12.392,12.6c-1.325,1.479-3.305,3.339-4.766,4.923l-12.308-12.358l-0.309,0.344
		l1.48,23.993c-2.134,0.345-4.458,0.517-6.781,0.517l-1.825-32.288l-48.175-48.366l-0.154,88.882l30.447,29.329l-0.189,0.723
		l-4.458,4.268l-26.282-25.025h-0.207l-0.31,26.162l-6.781,0.172l0.154-25.956h-0.499l-26.006,25.956
		c-1.686-1.309-3.46-3.167-4.973-4.992l31.479-31.291l0.155-87.779l-0.481-0.449l-40.414,40.38l2.478,30.981l-6.953,0.515
		C440,571.36,440,562.065,438.812,553.77l-11.583,11.429l-4.63-4.613l11.084-11.497l-0.361-0.241
		c-8.761,0-16.178-1.205-25.302-1.342l0.327-6.782c10.93,0,21.189,1.309,31.963,1.79l40.069-40.069l-0.517-0.31h-81.928
		l-30.155,29.157l-4.647-4.682c7.952-8.435,16.902-16.73,25.336-24.785l-25.835-0.379v-6.575c8.624,0,17.401,0,25.835-0.172
		l-26.162-26.334c1.325-1.859,3.168-3.718,4.785-4.992l31.807,31.498h81.963l-25.475-26.058l-18.553-18.658l-29.983-2.168
		c-0.172-2.135,0.172-4.476,0.327-6.816c8.777,0.345,14.061,0.862,22.668,1.309l-11.738-11.911l4.648-4.957
		c4.303,3.993,8.089,7.952,12.392,12.117l-1.292-24.165l6.765-0.345l1.842,32.083l43.563,43.786l0.154-85.989l-28.657-29.949
		c1.652-1.858,3.305-2.994,4.957-4.819l24.182,25.198h0.155v-25.542h6.833l0.156,25.852l26.471-26.197l4.957,4.682l-31.584,31.739
		v84.681l0.156,0.172l39.552-39.277l-0.792-30.121l6.747-0.172l0.654,23.821l1.497-0.964l9.966-9.914l4.613,4.612
		c-3.46,3.959-7.435,7.573-11.085,11.566l25.835,1.686l-0.327,7.092c-11.876-0.483-20.069-1.652-32.151-2.169l-39.759,39.622v0.172
		l91.772,0.275c10.604-9.914,20.706-20.207,31.154-30.293C623.271,466.025,624.941,468.02,626.575,469.639z M294.734,199.415h50.688
		v15.697h-50.688V199.415z M382.6,155.629l-9.106-11.773l39.965-30.809h14.44v150.912h-16.711V156.352
		c0-8.916,0.275-17.384,0.826-25.37c-1.447,1.446-3.081,2.926-4.855,4.544C405.37,137.075,397.195,143.822,382.6,155.629z
		 M535.285,265.99c16.902,0,29.5-6.403,37.728-19.243c8.226-12.908,12.341-32.392,12.341-58.485
		c0-25.163-4.251-44.406-12.754-57.728c-8.503-13.253-20.929-19.896-37.315-19.896c-16.799,0-29.295,6.368-37.488,19.139
		c-8.174,12.702-12.253,32.22-12.253,58.485c0,25.508,4.215,44.785,12.684,58.004C506.678,259.415,519.037,265.99,535.285,265.99z
		 M510.62,140.447c5.146-9.948,13.374-14.939,24.665-14.939c11.394,0,19.69,5.025,24.819,15.112
		c5.163,10.086,7.729,25.955,7.729,47.642c0,21.721-2.566,37.625-7.729,47.711c-5.129,10.189-13.424,15.284-24.819,15.284
		c-11.291,0-19.518-4.991-24.665-15.043c-5.181-10.018-7.763-25.99-7.763-47.952C502.857,166.334,505.439,150.396,510.62,140.447z
		 M656.042,30.809c-24.647,0-44.699,20.069-44.699,44.75s20.052,44.716,44.699,44.716c24.715,0,44.75-20.035,44.75-44.716
		S680.757,30.809,656.042,30.809z M656.042,105.336c-16.455,0-29.794-13.287-29.794-29.776c0-16.454,13.339-29.811,29.794-29.811
		c16.506,0,29.844,13.356,29.844,29.811C685.886,92.049,672.547,105.336,656.042,105.336z"/>
</g>
<g id="Layer_1">
</g>
</svg>
