<?xml version="1.0" encoding="iso-8859-1"?>
<!-- Generator: Adobe Illustrator 17.1.0, SVG Export Plug-In . SVG Version: 6.00 Build 0)  -->
<!DOCTYPE svg PUBLIC "-//W3C//DTD SVG 1.1//EN" "http://www.w3.org/Graphics/SVG/1.1/DTD/svg11.dtd">
<svg version="1.1" xmlns="http://www.w3.org/2000/svg" xmlns:xlink="http://www.w3.org/1999/xlink" x="0px" y="0px"
	 viewBox="0 0 521.962 466.127" style="enable-background:new 0 0 521.962 466.127;" xml:space="preserve">
<g id="fahrenheit">
	<path id="fahrenheit_1_" d="M311.944,55.111v186.265h198.279v28.537H311.944v196.213h-30.636V26.884h240.654v28.227H311.944z
		 M167.814,83.889c0,46.265-37.625,83.855-83.907,83.855C37.659,167.745,0,130.154,0,83.889C0,37.624,37.659,0,83.907,0
		C130.189,0,167.814,37.624,167.814,83.889z M139.863,83.889c0-30.912-25.06-55.938-55.955-55.938S27.952,52.978,27.952,83.889
		c0,30.913,25.06,55.904,55.955,55.904S139.863,114.802,139.863,83.889z"/>
</g>
<g id="Layer_1">
</g>
</svg>
