<?xml version="1.0" encoding="iso-8859-1"?>
<!-- Generator: Adobe Illustrator 17.1.0, SVG Export Plug-In . SVG Version: 6.00 Build 0)  -->
<!DOCTYPE svg PUBLIC "-//W3C//DTD SVG 1.1//EN" "http://www.w3.org/Graphics/SVG/1.1/DTD/svg11.dtd">
<svg version="1.1" xmlns="http://www.w3.org/2000/svg" xmlns:xlink="http://www.w3.org/1999/xlink" x="0px" y="0px"
	 viewBox="0 0 730.775 730.741" style="enable-background:new 0 0 730.775 730.741;" xml:space="preserve">
<g id="flurry-snow-snow_shower">
	<path id="flurry-snow-snow_shower_1_" d="M657.969,373.632l72.806,71.842c-2.754,5.955-9.191,9.19-13.288,14.217l-87.469-86.541
		l-250.431-0.928l-0.447,0.447l133.253,133.735c32.496,1.377,54.904,3.202,86.953,5.921l-1.377,18.762
		c-22.891-0.896-44.888-3.616-67.298-4.545l34.355,34.802c-3.684,4.131-9.156,9.123-13.287,13.735l-33.908-34.32l-0.894,0.86
		l4.131,66.436c-5.955,0.896-12.358,1.343-18.762,1.343l-5.059-89.294L364.027,386.437l-0.481,245.851l84.233,81.067l-0.447,1.824
		l-12.357,11.877l-72.772-69.158h-0.482l-0.929,72.393l-18.761,0.449l0.448-71.876h-1.343l-71.91,71.876
		c-4.579-3.684-9.604-8.71-13.735-13.735l86.988-86.541l0.481-242.684l-1.377-1.343L229.879,498.107l6.851,85.645l-19.243,1.377
		c-2.754-21.963-2.754-47.608-5.955-70.499l-32.048,31.601l-12.805-12.841l30.706-31.566l-0.964-0.964
		c-24.234,0-44.854-3.167-70.052-3.648l0.93-18.762c30.224,0,58.589,3.649,88.365,5.026l110.774-110.809l-1.342-0.93H98.451
		l-83.339,80.62L2.306,439.517c21.997-23.338,46.713-46.195,70.052-68.674l-71.429-0.896v-18.313c23.821,0,48.09,0,71.429-0.481
		L0,278.348c3.683-4.991,8.71-10.052,13.287-13.735l87.917,87.022h226.644l-70.499-71.91l-51.291-51.739l-82.891-5.955
		c-0.447-5.921,0.482-12.324,0.93-18.76c24.268,0.929,38.933,2.306,62.719,3.648l-32.496-32.977l12.806-13.735
		c11.911,11.015,22.444,21.997,34.355,33.46l-3.684-66.85l18.795-0.929l5.026,88.812l120.413,120.895l0.448-237.625l-79.174-82.892
		c4.578-4.991,9.122-8.193,13.7-13.253l66.851,69.603h0.481V0.895h18.761l0.448,71.429L436.833,0l13.735,12.806l-87.47,87.917
		v233.976l0.448,0.448l109.432-108.503l-2.307-83.373l18.794-0.447l1.859,65.92l4.095-2.719l27.471-27.47l12.806,12.805
		c-9.604,11.016-20.584,21.102-30.672,32.083l71.429,4.544l-0.896,19.69c-32.977-1.342-55.421-4.544-88.846-5.955L376.833,351.153
		v0.481l253.667,0.93c29.293-27.47,57.211-55.904,86.092-83.821c4.991,3.202,9.569,8.744,14.182,13.288l-73.287,71.428l71.91,0.895
		l0.481,19.277l-70.533-0.483L657.969,373.632z"/>
</g>
<g id="Layer_1">
</g>
</svg>
