<?xml version="1.0" encoding="iso-8859-1"?>
<!-- Generator: Adobe Illustrator 17.1.0, SVG Export Plug-In . SVG Version: 6.00 Build 0)  -->
<!DOCTYPE svg PUBLIC "-//W3C//DTD SVG 1.1//EN" "http://www.w3.org/Graphics/SVG/1.1/DTD/svg11.dtd">
<svg version="1.1" xmlns="http://www.w3.org/2000/svg" xmlns:xlink="http://www.w3.org/1999/xlink" x="0px" y="0px"
	 viewBox="0 0 1010 521.953" style="enable-background:new 0 0 1010 521.953;" xml:space="preserve">
<g id="fog">
	<path id="fog_1_" d="M11.979,380.336C5.37,380.336,0,374.966,0,368.322c0-6.609,5.37-11.945,11.979-11.945h130.929
		c0.723,8.124,1.928,16.144,3.58,23.959H11.979z M41.893,299.406h108.675c2.478-8.227,5.456-16.178,8.864-23.967H41.893
		c-6.574,0-11.927,5.412-11.927,11.988C29.965,294.07,35.318,299.406,41.893,299.406z M22.599,437.271
		c-6.592,0-11.945,5.336-11.945,11.945c0,6.609,5.352,11.979,11.945,11.979h158.21c-7.263-7.401-13.855-15.456-19.914-23.925H22.599
		z M1010,403.536c0,65.404-53.03,118.417-118.486,118.417h-71.997h-0.206H454.01h-0.155h-88.554
		c-44.114,0-84.544-15.525-116.196-41.412c-8.829-7.228-16.936-15.249-24.251-23.993c-18.296-21.686-31.567-47.676-38.245-76.213
		c-1.842-7.815-3.287-15.801-4.131-23.959c-0.551-5.955-0.895-12.013-0.895-18.107c0-20.379,3.459-39.862,9.536-58.141
		c2.806-8.304,6.179-16.308,10.017-23.984c30.19-60.172,92.238-101.549,164.165-101.549c71.945,0,71.136-7.642,64.079-9.983
		c-0.465-0.172-0.947-0.344-1.36-0.517c-1.842-0.551-3.684-1.102-5.56-1.652c-1.067-0.275-2.151-0.585-3.253-0.894
		c-1.635-0.448-3.305-0.896-5.026-1.309c-1.395-0.344-2.84-0.689-4.252-1.032c-1.446-0.275-2.891-0.62-4.354-0.93
		c-2.789-0.551-5.594-1.068-8.399-1.481c-0.43-0.103-0.878-0.138-1.326-0.172C440.086,55.249,526.299,0,625.386,0
		c144.131,0,260.981,116.867,260.981,261.032c0,1.274-0.12,2.582-0.12,3.856c-0.688,0.068-1.361,0.068-2.083,0.102
		c-0.395,0.034-0.808,0.07-1.205,0.07c-2.048,0.138-4.061,0.309-6.041,0.515c-0.447,0.035-0.896,0.104-1.325,0.139
		c-1.997,0.24-3.959,0.447-5.939,0.757c-0.31,0.138-0.653,0.138-0.998,0.206c-2.014,0.345-4.079,0.724-6.128,1.171
		c-0.206,0.034-0.378,0.07-0.551,0.104c-2.203,0.499-4.337,0.98-6.47,1.566c-0.035,0-0.104,0-0.104,0
		c-25.284,6.849-47.712,20.696-65.111,39.285c0-0.034-0.035-0.034-0.035-0.034c-4.733,4.957-9.07,10.361-13.011,16.076
		c0,0.034,0.034,0.034,0.052,0.068c-9.794,14.148-16.954,30.121-20.965,47.401c-2.048,12.083,16.352,16.73,20.431,1.928
		c2.72-10.74,6.851-20.756,12.255-30.085c3.786-6.541,8.124-12.634,13.013-18.313c21.772-24.957,53.769-40.827,89.483-40.827
		C956.97,285.016,1010,338.064,1010,403.536z M210.465,299.406h348.382h21.051h19.552c6.592,0,11.978-5.336,11.978-11.979
		c0-6.575-5.386-11.988-11.978-11.988h-28.383h-22.22H220.43C216.557,283.158,213.184,291.144,210.465,299.406z M592.116,449.216
		c0-6.609-5.386-11.945-11.996-11.945H224.854c7.315,8.71,15.422,16.73,24.251,23.925h331.016
		C586.73,461.196,592.116,455.826,592.116,449.216z M641.359,368.322c0-6.609-5.386-11.945-11.979-11.945h-42.047h-19.57H201.807
		c0.809,8.158,2.289,16.144,4.097,23.959H629.38C635.972,380.336,641.359,374.966,641.359,368.322z"/>
</g>
<g id="Layer_1">
</g>
</svg>
