<?xml version="1.0" encoding="iso-8859-1"?>
<!-- Generator: Adobe Illustrator 17.1.0, SVG Export Plug-In . SVG Version: 6.00 Build 0)  -->
<!DOCTYPE svg PUBLIC "-//W3C//DTD SVG 1.1//EN" "http://www.w3.org/Graphics/SVG/1.1/DTD/svg11.dtd">
<svg version="1.1" xmlns="http://www.w3.org/2000/svg" xmlns:xlink="http://www.w3.org/1999/xlink" x="0px" y="0px"
	 viewBox="0 0 835.128 523.313" style="enable-background:new 0 0 835.128 523.313;" xml:space="preserve">
<g id="fog-2">
	<path id="fog-2_1_" d="M835.128,406.824c0,19.828-4.905,38.554-13.494,55.009H45.026C17.022,429.371,0,387.203,0,341.04
		C0,238.692,82.926,155.8,185.215,155.8c81.532,0,150.706,52.668,175.456,125.896c2.306,6.849,4.269,13.906,5.8,21.135
		c2.599,12.289,3.958,25.06,3.958,38.209c0,4.855-0.241,9.708-0.62,14.493c-2.564,13.424,18.4,17.28,20.328,1.962
		c0.206-2.686,0.361-5.301,0.516-7.952c0.069-1.996,0.121-3.993,0.121-5.989c0.034-0.862,0.086-1.652,0.086-2.514
		c0-4.131-0.138-8.123-0.413-12.185c-0.034-0.998-0.121-2.031-0.206-3.063c-0.258-3.063-0.516-6.128-0.861-9.122
		c-0.12-1.033-0.292-2.067-0.413-3.099c-0.447-3.235-0.946-6.54-1.532-9.81c-0.086-0.585-0.206-1.136-0.327-1.722
		c-0.74-4.027-1.618-7.917-2.599-11.806h0.017c-1.721-6.748-3.787-13.434-6.144-19.906h-0.018
		c-18.95-51.601-58.089-93.598-107.728-116.421c0,0-0.035,0-0.069,0c-6.765-3.063-13.649-5.783-20.74-8.124
		c-0.465-0.172-0.947-0.344-1.395-0.516c-1.824-0.551-3.752-1.136-5.594-1.652c-1.068-0.344-2.151-0.62-3.288-0.929
		c-1.669-0.483-3.339-0.896-5.06-1.377c-1.429-0.275-2.84-0.62-4.286-0.964c-1.48-0.31-2.926-0.689-4.406-0.964
		c-2.788-0.586-5.611-1.068-8.467-1.515c-0.431-0.07-0.826-0.104-1.309-0.207C260.602,55.663,347.504,0,447.383,0
		c145.302,0,263.116,117.797,263.116,263.133c0,1.273-0.086,2.581-0.086,3.924c-0.723,0.034-1.429,0.034-2.151,0.068
		c-0.397,0.035-0.774,0.104-1.205,0.104c-2.048,0.104-4.079,0.241-6.094,0.483c-0.447,0.068-0.859,0.104-1.307,0.138
		c-2.014,0.275-4.009,0.481-5.989,0.826c-0.327,0.034-0.654,0.102-1.016,0.172c-2.065,0.31-4.097,0.723-6.162,1.136
		c-0.172,0.035-0.413,0.138-0.551,0.172c-2.273,0.448-4.406,0.965-6.557,1.516c-0.052,0-0.07,0-0.104,0.068
		c-25.49,6.885-48.055,20.8-65.628,39.56c0-0.034-0.052-0.034-0.052-0.068c-4.767,5.095-9.122,10.533-13.099,16.282
		c0,0,0.018,0,0.018,0.034c-9.828,14.252-17.056,30.432-21.101,47.781c-2.083,12.219,16.471,16.867,20.602,1.928
		c2.754-10.775,6.885-20.929,12.323-30.328c3.821-6.574,8.245-12.702,13.167-18.381c21.895-25.233,54.167-41.206,90.191-41.206
		C781.635,287.34,835.128,340.834,835.128,406.824z M787.022,500.765H48.175c-10.981,0-19.948,5.061-19.948,11.257
		c0,6.232,8.967,11.291,19.948,11.291h738.847c10.928,0,19.88-5.059,19.88-11.291C806.902,505.826,797.951,500.765,787.022,500.765z
		"/>
</g>
<g id="Layer_1">
</g>
</svg>
