<?xml version="1.0" encoding="iso-8859-1"?>
<!-- Generator: Adobe Illustrator 17.1.0, SVG Export Plug-In . SVG Version: 6.00 Build 0)  -->
<!DOCTYPE svg PUBLIC "-//W3C//DTD SVG 1.1//EN" "http://www.w3.org/Graphics/SVG/1.1/DTD/svg11.dtd">
<svg version="1.1" xmlns="http://www.w3.org/2000/svg" xmlns:xlink="http://www.w3.org/1999/xlink" x="0px" y="0px"
	 viewBox="0 0 730.757 707.254" style="enable-background:new 0 0 730.757 707.254;" xml:space="preserve">
<g id="hail-2">
	<path id="hail-2_1_" d="M626.23,233.528c-1.565,0-3.081,0.104-4.594,0.138l0,0C623.116,233.632,624.665,233.528,626.23,233.528z
		 M626.23,251.428c-31.531,0-59.759,13.941-78.932,36.007c-4.286,4.992-8.158,10.362-11.479,16.145
		c-4.769,8.158-8.401,17.108-10.827,26.505c-3.596,13.047-19.81,8.985-17.986-1.72c3.51-15.181,9.828-29.295,18.469-41.756
		c0-0.069-0.035-0.069-0.035-0.069c3.478-4.991,7.315-9.81,11.446-14.251c0,0.069,0.035,0.069,0.035,0.069
		c15.386-16.386,35.146-28.571,57.435-34.561c0.052-0.034,0.052-0.034,0.086-0.034c1.911-0.517,3.77-0.999,5.749-1.412
		c0.102-0.035,0.345-0.069,0.481-0.138c1.808-0.378,3.598-0.654,5.388-0.964c0.344-0.035,0.619-0.138,0.894-0.207
		c1.74-0.241,3.495-0.482,5.232-0.688c0.379,0,0.774-0.034,1.171-0.138c1.738-0.172,3.51-0.275,5.318-0.413
		c0.361,0,0.706-0.034,1.085-0.104c0.619,0,1.238,0,1.876-0.034c0-1.17,0.034-2.307,0.034-3.442C621.67,103.064,518.623,0,391.464,0
		c-87.401,0-163.426,48.709-202.445,120.482c0.431,0.069,0.775,0.104,1.153,0.138c2.461,0.379,4.94,0.826,7.401,1.343
		c1.273,0.241,2.547,0.585,3.872,0.86c1.256,0.275,2.496,0.585,3.753,0.86c1.48,0.345,2.926,0.723,4.423,1.171
		c0.981,0.241,1.928,0.551,2.875,0.791c1.618,0.516,3.253,0.964,4.887,1.48c0.396,0.138,0.792,0.31,1.205,0.379
		c6.213,2.099,12.255,4.475,18.176,7.194h0.034c43.443,19.932,77.694,56.696,94.269,101.859c0,0,0,0,0.017-0.034
		c2.082,5.713,3.873,11.531,5.37,17.452l0,0c0.843,3.408,1.601,6.782,2.272,10.292c0.103,0.517,0.189,0.999,0.275,1.515
		c0.534,2.857,0.929,5.715,1.36,8.606c0.086,0.86,0.258,1.755,0.344,2.684c0.292,2.616,0.551,5.302,0.74,7.986
		c0.087,0.896,0.172,1.79,0.189,2.72c0.258,3.511,0.361,7.022,0.361,10.602c0,0.723-0.034,1.481-0.086,2.203
		c0,1.756-0.017,3.511-0.086,5.232c-0.138,2.307-0.275,4.647-0.465,6.988c-1.686,13.356-20.017,9.982-17.763-1.687
		c0.344-4.234,0.551-8.468,0.551-12.737c0-11.429-1.204-22.651-3.494-33.391c-1.325-6.334-3.012-12.53-5.06-18.52
		c-21.653-64.061-82.168-110.155-153.545-110.155C72.582,136.317,0,208.881,0,298.382c0,89.457,72.582,162.057,162.048,162.057
		h78.158h0.121h322.168h0.207h63.527c57.695,0,104.527-46.816,104.527-104.501C730.757,298.21,683.925,251.428,626.23,251.428z
		 M275.8,605.602c0.052-0.138,0.103-0.31,0.017-0.379l-40.378-80.688c-0.035-0.104-0.172-0.206-0.293-0.206
		c-0.172,0-0.292,0.102-0.378,0.206l-40.361,80.688c0,0.035,0.086,0.035,0.086,0.07c-0.052,0.034-0.104,0.034-0.104,0.102
		c0,0.07,0.121,0.07,0.172,0.104c0.035,0.104,0,0.241,0.035,0.241c0.051,0.034,0.086,0,0.138,0c0.017,0,0.017,0.07,0.051,0.07
		h80.671C275.577,605.809,275.731,605.74,275.8,605.602z M341.153,605.499c0.052,0.104,0,0.241,0.087,0.241
		c0.051,0.034,0.051,0,0.12,0c0.035,0,0.035,0.07,0.069,0.07h80.655c0.154,0,0.258-0.07,0.326-0.207
		c0.104-0.138,0.104-0.31,0.052-0.379l-40.344-80.688c-0.068-0.104-0.189-0.206-0.361-0.206c-0.154,0-0.293,0.102-0.379,0.206
		l-40.292,80.688c-0.052,0.035,0,0.035,0,0.07s-0.052,0.034-0.052,0.102C341.032,605.43,341.119,605.43,341.153,605.499z
		 M528.365,524.329c-0.121,0-0.275,0.102-0.361,0.206l-40.31,80.688c-0.018,0.035,0.052,0.035,0.052,0.07
		c-0.035,0.034-0.07,0.034-0.07,0.102c0,0.07,0.104,0.07,0.104,0.104c0.086,0.104,0,0.241,0.086,0.241c0.068,0.034,0.086,0,0.086,0
		c0.086,0,0.034,0.07,0.121,0.07h80.637c0.12,0,0.292-0.07,0.361-0.207c0.052-0.138,0.052-0.31,0.018-0.379l-40.328-80.688
		C528.674,524.431,528.503,524.329,528.365,524.329z M306.85,625.774c-0.138,0-0.292,0.07-0.361,0.241l-40.344,80.62
		c0,0.034,0.052,0.102,0.052,0.138c-0.018,0.034-0.052,0.034-0.052,0.068c0,0.104,0.086,0.104,0.138,0.172
		c0.052,0.07-0.018,0.139,0.052,0.173c0.034,0.068,0.051-0.034,0.103-0.034c0.035,0,0.035,0.102,0.069,0.102h80.689
		c0.138,0,0.258-0.102,0.309-0.172c0.087-0.138,0.087-0.31,0.052-0.447l-40.344-80.62
		C307.126,625.843,307.005,625.774,306.85,625.774z M455.06,625.774c-0.138,0-0.293,0.07-0.361,0.241l-40.31,80.62
		c-0.034,0.034,0.052,0.102,0.052,0.138c0,0-0.086,0.034-0.086,0.068c0,0.104,0.086,0.104,0.12,0.172
		c0.018,0.07,0,0.139,0.086,0.173c0.035,0.068,0.07-0.034,0.12-0.034c0,0,0,0.102,0.052,0.102h80.672
		c0.138,0,0.24-0.102,0.361-0.172c0.052-0.138,0.052-0.31,0-0.447l-40.328-80.62C455.37,625.843,455.232,625.774,455.06,625.774z"/>
</g>
<g id="Layer_1">
</g>
</svg>
