<?xml version="1.0" encoding="iso-8859-1"?>
<!-- Generator: Adobe Illustrator 17.1.0, SVG Export Plug-In . SVG Version: 6.00 Build 0)  -->
<!DOCTYPE svg PUBLIC "-//W3C//DTD SVG 1.1//EN" "http://www.w3.org/Graphics/SVG/1.1/DTD/svg11.dtd">
<svg version="1.1" xmlns="http://www.w3.org/2000/svg" xmlns:xlink="http://www.w3.org/1999/xlink" x="0px" y="0px"
	 viewBox="0 0 730.758 699.276" style="enable-background:new 0 0 730.758 699.276;" xml:space="preserve">
<g id="hail">
	<path id="hail_1_" d="M640.688,607.332c0,9.156-7.435,16.591-16.627,16.591c-9.174,0-16.643-7.435-16.643-16.591
		c0-9.191,7.47-16.627,16.643-16.627C633.253,590.705,640.688,598.141,640.688,607.332z M538.416,590.705
		c-9.19,0-16.643,7.435-16.643,16.627c0,9.156,7.453,16.591,16.643,16.591c9.157,0,16.627-7.435,16.627-16.591
		C555.043,598.141,547.573,590.705,538.416,590.705z M452.719,590.705c-9.156,0-16.609,7.435-16.609,16.627
		c0,9.156,7.453,16.591,16.609,16.591c9.191,0,16.679-7.435,16.679-16.591C469.397,598.141,461.91,590.705,452.719,590.705z
		 M367.073,590.705c-9.191,0-16.626,7.435-16.626,16.627c0,9.156,7.435,16.591,16.626,16.591c9.157,0,16.645-7.435,16.645-16.591
		C383.718,598.141,376.231,590.705,367.073,590.705z M281.394,590.705c-9.174,0-16.592,7.435-16.592,16.627
		c0,9.156,7.418,16.591,16.592,16.591c9.191,0,16.627-7.435,16.627-16.591C298.021,598.141,290.585,590.705,281.394,590.705z
		 M195.766,590.705c-9.208,0-16.609,7.435-16.609,16.627c0,9.156,7.401,16.591,16.609,16.591c9.157,0,16.61-7.435,16.61-16.591
		C212.375,598.141,204.922,590.705,195.766,590.705z M110.103,590.705c-9.174,0-16.644,7.435-16.644,16.627
		c0,9.156,7.47,16.591,16.644,16.591c9.191,0,16.627-7.435,16.627-16.591C126.73,598.141,119.295,590.705,110.103,590.705z
		 M645.456,515.283c-9.191,0-16.627,7.505-16.627,16.695c0,9.157,7.435,16.627,16.627,16.627c9.208,0,16.643-7.47,16.643-16.627
		C662.099,522.788,654.663,515.283,645.456,515.283z M559.827,515.283c-9.208,0-16.625,7.505-16.625,16.695
		c0,9.157,7.418,16.627,16.625,16.627c9.175,0,16.627-7.47,16.627-16.627C576.453,522.788,569.002,515.283,559.827,515.283z
		 M474.149,515.283c-9.175,0-16.662,7.505-16.662,16.695c0,9.157,7.487,16.627,16.662,16.627c9.19,0,16.626-7.47,16.626-16.627
		C490.774,522.788,483.339,515.283,474.149,515.283z M388.485,515.283c-9.157,0-16.645,7.505-16.645,16.695
		c0,9.157,7.487,16.627,16.645,16.627c9.19,0,16.677-7.47,16.677-16.627C405.163,522.788,397.675,515.283,388.485,515.283z
		 M302.84,515.283c-9.191,0-16.644,7.505-16.644,16.695c0,9.157,7.453,16.627,16.644,16.627c9.191,0,16.626-7.47,16.626-16.627
		C319.466,522.788,312.031,515.283,302.84,515.283z M217.195,515.283c-9.208,0-16.644,7.505-16.644,16.695
		c0,9.157,7.435,16.627,16.644,16.627c9.191,0,16.626-7.47,16.626-16.627C233.821,522.788,226.385,515.283,217.195,515.283z
		 M131.549,515.283c-9.191,0-16.679,7.505-16.679,16.695c0,9.157,7.487,16.627,16.679,16.627c9.156,0,16.591-7.47,16.591-16.627
		C148.141,522.788,140.705,515.283,131.549,515.283z M602.633,666.024c-9.209,0-16.609,7.435-16.609,16.591
		c0,9.261,7.4,16.661,16.609,16.661c9.174,0,16.645-7.4,16.645-16.661C619.278,673.459,611.807,666.024,602.633,666.024z
		 M517.005,666.024c-9.227,0-16.627,7.435-16.627,16.591c0,9.261,7.4,16.661,16.627,16.661c9.14,0,16.591-7.4,16.591-16.661
		C533.597,673.459,526.145,666.024,517.005,666.024z M431.36,666.024c-9.227,0-16.679,7.435-16.679,16.591
		c0,9.261,7.452,16.661,16.679,16.661c9.156,0,16.591-7.4,16.591-16.661C447.951,673.459,440.516,666.024,431.36,666.024z
		 M345.68,666.024c-9.191,0-16.644,7.435-16.644,16.591c0,9.261,7.453,16.661,16.644,16.661c9.191,0,16.626-7.4,16.626-16.661
		C362.306,673.459,354.87,666.024,345.68,666.024z M260.017,666.024c-9.208,0-16.644,7.435-16.644,16.591
		c0,9.261,7.436,16.661,16.644,16.661c9.156,0,16.626-7.4,16.626-16.661C276.644,673.459,269.173,666.024,260.017,666.024z
		 M174.302,666.024c-9.122,0-16.591,7.435-16.591,16.591c0,9.261,7.47,16.661,16.591,16.661c9.225,0,16.644-7.4,16.644-16.661
		C190.946,673.459,183.528,666.024,174.302,666.024z M88.675,666.024c-9.157,0-16.609,7.435-16.609,16.591
		c0,9.261,7.453,16.661,16.609,16.661c9.208,0,16.626-7.4,16.626-16.661C105.301,673.459,97.882,666.024,88.675,666.024z
		 M626.23,233.528c-1.566,0-3.081,0.068-4.647,0.103l0,0C623.149,233.596,624.646,233.528,626.23,233.528z M626.23,251.394
		c-31.514,0-59.743,13.976-78.881,36.041c-4.338,4.957-8.21,10.362-11.532,16.11c-4.767,8.228-8.399,17.109-10.826,26.507
		c-3.598,13.115-19.811,9.018-18.004-1.652c3.512-15.25,9.846-29.363,18.485-41.825c-0.034-0.034-0.034-0.034-0.034-0.034
		c3.46-5.027,7.316-9.811,11.48-14.252c0,0.035,0.018,0.035,0.018,0.07c15.386-16.386,35.128-28.537,57.417-34.596
		c0.052-0.035,0.087-0.035,0.087-0.035c1.91-0.516,3.786-0.964,5.731-1.342c0.136-0.069,0.361-0.103,0.499-0.138
		c1.808-0.378,3.596-0.723,5.404-1.033c0.275-0.034,0.619-0.069,0.894-0.172c1.722-0.241,3.478-0.517,5.216-0.689
		c0.379-0.035,0.774-0.07,1.153-0.104c1.738-0.206,3.544-0.344,5.352-0.482c0.344,0,0.671-0.035,1.016-0.069
		c0.654-0.069,1.291,0,1.876-0.069c0-1.136,0.086-2.272,0.086-3.442C621.669,103.063,518.622,0,391.429,0
		c-87.367,0-163.426,48.709-202.41,120.482c0.413,0.068,0.757,0.068,1.153,0.172c2.461,0.379,4.974,0.792,7.384,1.273
		c1.291,0.275,2.565,0.586,3.89,0.896c1.239,0.241,2.496,0.551,3.752,0.826c1.481,0.413,2.926,0.791,4.424,1.17
		c0.981,0.241,1.91,0.551,2.84,0.792c1.669,0.517,3.305,0.998,4.922,1.515c0.396,0.172,0.809,0.275,1.205,0.413
		c6.213,2.031,12.255,4.475,18.176,7.16h0.034c43.442,19.931,77.694,56.661,94.269,101.824l0.017-0.035
		c2.082,5.715,3.872,11.532,5.37,17.453l0,0c0.843,3.408,1.583,6.816,2.289,10.293c0.086,0.516,0.172,1.032,0.258,1.583
		c0.533,2.858,0.946,5.68,1.359,8.537c0.121,0.896,0.241,1.79,0.345,2.686c0.31,2.65,0.551,5.37,0.757,8.054
		c0.052,0.826,0.155,1.722,0.224,2.616c0.189,3.546,0.292,7.092,0.292,10.637c0,0.791-0.017,1.515-0.052,2.272
		c0,1.686-0.052,3.477-0.12,5.198c-0.121,2.341-0.275,4.682-0.448,6.953c-1.687,13.426-20.034,10.052-17.797-1.686
		c0.362-4.165,0.586-8.433,0.586-12.737c0-11.429-1.239-22.617-3.494-33.425c-1.325-6.3-3.063-12.427-5.06-18.486
		c-21.67-64.028-82.186-110.086-153.546-110.086C72.547,136.351,0,208.846,0,298.347c0,89.536,72.547,162.065,162.048,162.065
		h78.159h0.103h322.187h0.206h63.529c57.728,0,104.527-46.78,104.527-104.474C730.758,298.244,683.958,251.394,626.23,251.394z"/>
</g>
<g id="Layer_1">
</g>
</svg>
