<?xml version="1.0" encoding="iso-8859-1"?>
<!-- Generator: Adobe Illustrator 17.1.0, SVG Export Plug-In . SVG Version: 6.00 Build 0)  -->
<!DOCTYPE svg PUBLIC "-//W3C//DTD SVG 1.1//EN" "http://www.w3.org/Graphics/SVG/1.1/DTD/svg11.dtd">
<svg version="1.1" xmlns="http://www.w3.org/2000/svg" xmlns:xlink="http://www.w3.org/1999/xlink" x="0px" y="0px"
	 viewBox="0 0 630.517 444.407" style="enable-background:new 0 0 630.517 444.407;" xml:space="preserve">
<g id="haze">
	<path id="haze_1_" d="M630.517,222.169c0,6.917-5.611,12.529-12.531,12.529H12.495C5.542,234.698,0,229.087,0,222.169
		c0-6.92,5.542-12.53,12.495-12.53h605.49C624.905,209.639,630.517,215.249,630.517,222.169z M43.821,129.879h542.84
		c6.919,0,12.53-5.61,12.53-12.495c0-6.954-5.611-12.566-12.53-12.566H43.821c-6.919,0-12.53,5.611-12.53,12.566
		C31.29,124.269,36.902,129.879,43.821,129.879z M586.661,314.492H43.821c-6.919,0-12.53,5.611-12.53,12.53
		c0,6.919,5.611,12.53,12.53,12.53h542.84c6.919,0,12.53-5.611,12.53-12.53C599.191,320.104,593.579,314.492,586.661,314.492z
		 M96.007,25.06h438.468c6.919,0,12.53-5.645,12.53-12.53c0-6.953-5.611-12.53-12.53-12.53H96.007
		c-6.919,0-12.495,5.577-12.495,12.53C83.511,19.415,89.088,25.06,96.007,25.06z M534.475,419.347H96.007
		c-6.919,0-12.495,5.576-12.495,12.529c0,6.92,5.577,12.531,12.495,12.531h438.468c6.919,0,12.53-5.611,12.53-12.531
		C547.005,424.922,541.393,419.347,534.475,419.347z"/>
</g>
<g id="Layer_1">
</g>
</svg>
