<?xml version="1.0" encoding="iso-8859-1"?>
<!-- Generator: Adobe Illustrator 17.1.0, SVG Export Plug-In . SVG Version: 6.00 Build 0)  -->
<!DOCTYPE svg PUBLIC "-//W3C//DTD SVG 1.1//EN" "http://www.w3.org/Graphics/SVG/1.1/DTD/svg11.dtd">
<svg version="1.1" xmlns="http://www.w3.org/2000/svg" xmlns:xlink="http://www.w3.org/1999/xlink" x="0px" y="0px"
	 viewBox="0 0 707.796 730.767" style="enable-background:new 0 0 707.796 730.767;" xml:space="preserve">
<g id="heavy-rain">
	<path id="heavy-rain_1_" d="M172.513,601.583c-3.615,6.368-11.773,8.537-18.159,4.887c-6.386-3.716-8.589-11.876-4.888-18.21
		l46.334-80.24c3.649-6.403,11.807-8.573,18.227-4.889c6.334,3.684,8.52,11.806,4.854,18.21L172.513,601.583z M276.076,503.132
		c-6.386-3.684-14.527-1.515-18.21,4.889l-46.317,80.24c-3.666,6.334-1.497,14.493,4.854,18.21
		c6.386,3.65,14.527,1.481,18.227-4.887l46.299-80.241C284.613,514.939,282.41,506.816,276.076,503.132z M338.158,503.132
		c-6.369-3.684-14.51-1.515-18.193,4.889l-46.351,80.24c-3.666,6.334-1.498,14.493,4.888,18.21c6.386,3.65,14.51,1.481,18.21-4.887
		l46.333-80.241C346.695,514.939,344.526,506.816,338.158,503.132z M400.223,503.132c-6.386-3.684-14.526-1.515-18.158,4.889
		l-46.368,80.24c-3.667,6.334-1.498,14.493,4.87,18.21c6.386,3.65,14.561,1.481,18.193-4.887l46.351-80.241
		C408.777,514.939,406.557,506.816,400.223,503.132z M462.306,503.132c-6.386-3.684-14.51-1.515-18.193,4.889l-46.351,80.24
		c-3.65,6.334-1.497,14.493,4.887,18.21c6.386,3.65,14.527,1.481,18.211-4.887l46.333-80.241
		C470.843,514.939,468.674,506.816,462.306,503.132z M464.715,606.471c6.352,3.65,14.51,1.481,18.211-4.887l46.333-80.241
		c3.684-6.403,1.532-14.526-4.889-18.21c-6.334-3.684-14.508-1.515-18.158,4.889l-46.385,80.24
		C456.178,594.595,458.365,602.754,464.715,606.471z M586.454,503.132c-6.368-3.684-14.51-1.515-18.193,4.889l-46.317,80.24
		c-3.682,6.334-1.531,14.493,4.855,18.21c6.384,3.65,14.526,1.481,18.21-4.887l46.333-80.241
		C594.991,514.939,592.822,506.816,586.454,503.132z M237.142,625.644c-6.385-3.648-14.509-1.479-18.158,4.889l-46.333,80.241
		c-3.701,6.402-1.515,14.56,4.853,18.176c6.403,3.752,14.51,1.481,18.176-4.853l46.351-80.207
		C245.696,637.521,243.528,629.363,237.142,625.644z M299.242,625.644c-6.403-3.648-14.527-1.479-18.193,4.889l-46.369,80.241
		c-3.666,6.402-1.445,14.56,4.889,18.176c6.385,3.752,14.509,1.481,18.21-4.853l46.334-80.207
		C307.796,637.521,305.611,629.363,299.242,625.644z M361.291,625.644c-6.386-3.648-14.476-1.479-18.176,4.889l-46.335,80.241
		c-3.648,6.402-1.497,14.56,4.889,18.176c6.351,3.752,14.492,1.481,18.21-4.853l46.335-80.207
		C369.846,637.521,367.675,629.363,361.291,625.644z M423.391,625.644c-6.386-3.648-14.527-1.479-18.193,4.889l-46.335,80.241
		c-3.7,6.402-1.497,14.56,4.906,18.176c6.368,3.752,14.474,1.481,18.158-4.853l46.333-80.207
		C431.962,637.521,429.759,629.363,423.391,625.644z M485.473,625.644c-6.386-3.648-14.492-1.479-18.192,4.889l-46.335,80.241
		c-3.684,6.402-1.498,14.56,4.887,18.176c6.386,3.752,14.511,1.481,18.176-4.853l46.335-80.207
		C494.045,637.521,491.842,629.363,485.473,625.644z M606.523,243.545c-30.5,0-57.831,13.529-76.386,34.905
		c-4.183,4.785-7.934,10.018-11.171,15.594c-4.612,7.917-8.122,16.557-10.447,25.714c-3.51,12.634-19.207,8.675-17.453-1.652
		c3.391-14.733,9.553-28.399,17.882-40.482c0-0.034-0.016-0.034-0.016-0.034c3.356-4.888,7.056-9.501,11.101-13.838
		c0,0.034,0.034,0.034,0.034,0.034c14.871-15.869,34.028-27.642,55.612-33.46c0.052,0,0.068,0,0.104-0.069
		c1.84-0.447,3.648-0.86,5.524-1.308c0.138,0,0.327-0.069,0.499-0.138c1.756-0.309,3.494-0.654,5.232-0.964
		c0.311-0.034,0.551-0.138,0.878-0.172c1.636-0.241,3.34-0.448,5.043-0.62c0.361-0.069,0.758-0.138,1.101-0.138
		c1.704-0.206,3.442-0.344,5.164-0.448c0.361,0,0.705-0.069,1.05-0.069c2.082-0.138,4.165-0.172,6.248-0.172
		c-1.481,0-2.943,0.034-4.442,0.138c0-1.17,0.07-2.272,0.07-3.373C602.151,99.862,502.34,0,379.157,0
		c-84.665,0-158.331,47.194-196.059,116.729c0.361,0.035,0.74,0.069,1.085,0.104c2.427,0.413,4.819,0.826,7.177,1.342
		c1.291,0.206,2.496,0.517,3.753,0.792c1.204,0.275,2.427,0.551,3.631,0.86c1.447,0.344,2.875,0.723,4.286,1.101
		c0.929,0.241,1.876,0.517,2.754,0.826c1.618,0.413,3.201,0.895,4.75,1.377c0.378,0.172,0.809,0.31,1.17,0.448
		c6.024,1.996,11.911,4.303,17.607,6.885h0.052c42.083,19.311,75.215,54.94,91.309,98.657h0.034
		c1.997,5.508,3.752,11.118,5.198,16.867c0,0,0,0-0.052,0c0.826,3.27,1.583,6.609,2.22,9.983c0.103,0.516,0.19,1.033,0.292,1.48
		c0.517,2.789,0.93,5.543,1.291,8.296c0.121,0.895,0.241,1.755,0.361,2.65c0.275,2.513,0.517,5.129,0.706,7.746
		c0.068,0.86,0.155,1.755,0.189,2.582c0.224,3.408,0.344,6.851,0.344,10.293c0,0.689-0.034,1.446-0.086,2.134
		c0,1.755-0.034,3.408-0.086,5.06c-0.121,2.272-0.258,4.51-0.448,6.782c-1.635,12.977-19.38,9.707-17.212-1.618
		c0.31-4.096,0.5-8.227,0.5-12.358c0-11.084-1.171-21.928-3.322-32.358c-1.291-6.127-2.96-12.083-4.939-17.935
		c-20.964-62.031-79.622-106.678-148.692-106.678C70.275,132.048,0,202.306,0,289.019s70.275,157.005,156.971,157.005h75.68h0.121
		h312.065h0.206h61.481c55.938,0,101.273-45.371,101.273-101.274C707.796,288.846,662.461,243.545,606.523,243.545z"/>
</g>
<g id="Layer_1">
</g>
</svg>
