<?xml version="1.0" encoding="iso-8859-1"?>
<!-- Generator: Adobe Illustrator 17.1.0, SVG Export Plug-In . SVG Version: 6.00 Build 0)  -->
<!DOCTYPE svg PUBLIC "-//W3C//DTD SVG 1.1//EN" "http://www.w3.org/Graphics/SVG/1.1/DTD/svg11.dtd">
<svg version="1.1" xmlns="http://www.w3.org/2000/svg" xmlns:xlink="http://www.w3.org/1999/xlink" x="0px" y="0px"
	 viewBox="0 0 707.848 835.146" style="enable-background:new 0 0 707.848 835.146;" xml:space="preserve">
<g id="hot">
	<path id="hot_1_" d="M222.135,573.872V78.796C222.135,35.352,185.749,0,141.067,0C96.351,0,60,35.352,60,78.796v497.417
		c-37.28,26.575-60,70.052-60,116.213c0,78.693,64.027,142.72,142.719,142.72c78.657,0,142.651-64.028,142.651-142.72
		C285.37,644.578,261.411,600.241,222.135,573.872z M142.719,814.045c-67.16,0-121.549-54.459-121.549-121.619
		c0-44.613,24.062-83.614,59.966-104.785V78.796c0-31.877,26.781-57.626,59.931-57.626c33.046,0,59.931,25.749,59.931,57.626
		v506.954c37.694,20.654,63.201,60.653,63.201,106.677C264.199,759.587,209.845,814.045,142.719,814.045z M132.013,115.903H86.369
		V97.9h45.645V115.903z M130.499,278.313H87.091v-17.935h43.408V278.313z M114.217,169.811H84.75v-17.97h29.466V169.811z
		 M114.217,225.164H84.716v-17.9h29.501V225.164z M86.196,319.484h29.466v17.968H86.196V319.484z M219.311,691.807
		c0,43.236-35.008,78.278-78.244,78.278c-43.27,0-78.314-35.042-78.314-78.278c0-32.254,19.518-59.966,47.367-71.91V373.39
		c0-15.903,16.489-16.454,33.77-16.454c17.315,0,28.916,0.551,28.916,16.454v246.919
		C200.206,632.495,219.311,659.896,219.311,691.807z M455.491,263.959h-99.209v-14.768l39.759-39.931
		c12.117-12.255,20.103-21.032,23.993-26.265c3.821-5.198,6.713-10.292,8.605-15.284c1.928-4.922,2.893-10.292,2.893-15.972
		c0-8.089-2.41-14.423-7.299-19.174c-4.887-4.647-11.669-7.056-20.343-7.056c-6.266,0-12.187,1.033-17.796,3.133
		c-5.611,2.031-11.842,5.783-18.762,11.221l-9.052-11.669c13.872-11.566,29.018-17.349,45.404-17.349
		c14.148,0,25.301,3.615,33.357,10.878c8.02,7.229,12.048,17.039,12.048,29.294c0,9.57-2.65,19.036-8.056,28.365
		c-5.369,9.398-15.386,21.205-30.119,35.525l-33.046,32.324v0.826h77.625V263.959z M519.517,265.989
		c-17.005,0-29.982-2.65-38.898-8.158v-16.489c4.785,3.099,10.774,5.508,17.934,7.298c7.16,1.756,14.218,2.616,21.171,2.616
		c12.117,0,21.514-2.857,28.227-8.571c6.713-5.749,10.052-13.941,10.052-24.751c0-21.101-12.909-31.635-38.692-31.635
		c-6.54,0-15.284,0.999-26.231,2.994l-8.846-5.645l5.645-70.602h75.043v15.8h-60.378l-3.821,45.267
		c7.918-1.584,15.801-2.341,23.615-2.341c15.903,0,28.467,3.959,37.555,11.808c9.122,7.883,13.667,18.692,13.667,32.392
		c0,15.628-4.923,27.814-14.871,36.73C550.705,261.583,537.006,265.989,519.517,265.989z M663.098,30.843
		c-24.613,0-44.681,20.034-44.681,44.716c0,24.682,20.068,44.716,44.681,44.716c24.717,0,44.75-20.034,44.75-44.716
		C707.848,50.878,687.814,30.843,663.098,30.843z M663.098,105.336c-16.454,0-29.81-13.287-29.81-29.777
		c0-16.454,13.356-29.81,29.81-29.81c16.489,0,29.845,13.356,29.845,29.81C692.943,92.048,679.587,105.336,663.098,105.336z
		 M431.6,402.238l12.943,24.338c0.689,1.342,0.86,2.89,0.447,4.371c-0.481,1.48-1.445,2.72-2.822,3.442l-4.785,1.79
		c-2.169,0-4.097-1.136-5.129-2.994l-12.943-24.475c-0.758-1.309-0.862-2.892-0.447-4.372c0.481-1.515,1.479-2.685,2.89-3.408
		l4.717-1.79C428.605,399.139,430.567,400.31,431.6,402.238z M380.413,448.467l23.615,14.32c1.307,0.792,2.237,2.067,2.616,3.615
		c0.343,1.481,0.138,3.063-0.689,4.337l-1.205,1.997c-1.032,1.756-2.926,2.754-4.957,2.754l-2.96-0.792l-23.615-14.286
		c-2.72-1.617-3.58-5.197-1.962-7.986l1.273-2.031c0.998-1.652,2.892-2.718,4.923-2.718L380.413,448.467z M563.786,406.058
		l4.199,2.651c1.241,0.929,1.997,2.306,2.203,3.855c0.241,1.515-0.206,2.994-1.17,4.268l-16.765,21.859
		c-1.102,1.411-2.822,2.271-4.612,2.271h-1.137l-4.267-2.686c-2.514-1.928-2.961-5.542-1.102-8.054l16.867-21.893
		c1.136-1.446,2.788-2.272,4.613-2.272H563.786z M391.153,531.875l-28.02,2.788c-2.961,0-5.44-2.203-5.749-5.163l-0.206-2.341
		c-0.173-1.549,0.24-2.995,1.238-4.234c0.965-1.17,2.342-1.928,3.925-2.099l27.401-2.822c0.034,0,0.068,0,0.068,0
		c3.546,0,5.956,2.271,6.3,5.163l0.241,2.375c0.172,1.515-0.31,3.029-1.273,4.2C394.08,530.981,392.703,531.704,391.153,531.875z
		 M575.903,466.609l27.746-10.808c2.375,0,4.508,1.411,5.369,3.614l0.896,2.203c0.585,1.377,0.585,2.995,0,4.406
		c-0.62,1.445-1.756,2.547-3.235,3.098l-27.712,10.81c-2.341,0-4.406-1.411-5.3-3.546l-0.93-2.237
		C571.565,471.188,572.978,467.814,575.903,466.609z M491.773,382.719c3.201,0,5.783,2.582,5.783,5.783v27.608
		c0,3.202-2.582,5.784-5.783,5.784h-2.341c-3.201,0-5.817-2.582-5.817-5.784v-27.608c0-3.201,2.616-5.783,5.817-5.783H491.773z
		 M488.949,428.95c-47.503,0-86.127,38.622-86.127,86.127c0,47.504,38.624,86.162,86.127,86.162
		c47.506,0,86.162-38.658,86.162-86.162C575.111,467.573,536.455,428.95,488.949,428.95z M488.949,587.607
		c-39.999,0-72.563-32.53-72.563-72.53c0-39.999,32.564-72.564,72.563-72.564c40.035,0,72.566,32.565,72.566,72.564
		C561.515,555.078,528.984,587.607,488.949,587.607z M422.616,579.966c1.892,2.478,1.341,6.127-1.205,8.054l-22.995,17.212
		l-2.582,0.447c-1.824,0-3.546-0.826-4.648-2.375l-1.377-1.858c-0.928-1.241-1.307-2.72-1.102-4.27
		c0.241-1.583,1.067-2.926,2.307-3.82l22.995-17.144l2.548-0.481c1.79,0,3.545,0.86,4.646,2.307L422.616,579.966z M621.41,520.894
		l-0.102,2.41c-0.173,3.133-2.72,5.508-5.783,5.508l-0.309-0.034l-27.574-1.275c-3.201-0.24-5.611-2.89-5.472-6.058l0.102-2.375
		c0.207-3.167,2.72-5.508,5.817-5.508l27.814,1.343C619.036,515.077,621.55,517.763,621.41,520.894z M599.139,578.244
		c2.582,1.79,3.269,5.37,1.515,8.056l-1.343,1.962c-1.102,1.549-2.892,2.444-4.785,2.444h-1.066l-2.203-0.999l-22.721-15.697
		c-1.273-0.86-2.134-2.237-2.409-3.718c-0.275-1.583,0.07-3.063,0.964-4.337l1.309-1.928c1.066-1.515,2.856-2.444,4.75-2.444h1.068
		l2.203,0.964L599.139,578.244z M534.01,604.027l10.292,25.543c0.62,1.445,0.62,2.96,0,4.406c-0.619,1.479-1.755,2.547-3.201,3.167
		l-4.302,1.273c-2.341,0-4.474-1.377-5.37-3.58l-10.327-25.611c-1.17-2.995,0.241-6.334,3.201-7.539l4.338-1.307
		C531.015,600.379,533.115,601.824,534.01,604.027z M479.45,613.873l-4.166,27.263c-0.481,2.892-2.892,4.923-5.714,4.923
		l-3.167-0.414c-1.549-0.275-2.961-1.102-3.855-2.375c-0.862-1.239-1.273-2.788-0.998-4.268l4.131-27.229
		c0.447-2.856,2.89-4.888,5.748-4.888l3.167,0.379C477.762,607.745,479.897,610.706,479.45,613.873z"/>
</g>
<g id="Layer_1">
</g>
</svg>
