<?xml version="1.0" encoding="iso-8859-1"?>
<!-- Generator: Adobe Illustrator 17.1.0, SVG Export Plug-In . SVG Version: 6.00 Build 0)  -->
<!DOCTYPE svg PUBLIC "-//W3C//DTD SVG 1.1//EN" "http://www.w3.org/Graphics/SVG/1.1/DTD/svg11.dtd">
<svg version="1.1" xmlns="http://www.w3.org/2000/svg" xmlns:xlink="http://www.w3.org/1999/xlink" x="0px" y="0px"
	 viewBox="0 0 730.774 754.416" style="enable-background:new 0 0 730.774 754.416;" xml:space="preserve">
<g id="mix-haze-rain">
	<path id="mix-haze-rain_1_" d="M282.891,582.641l37.246,74.492c0.034,0.104,0.034,0.275-0.035,0.345
		c-0.051,0.136-0.172,0.206-0.292,0.206h-74.492c-0.052,0-0.034-0.07-0.086-0.07c0,0-0.035,0.035-0.069,0
		c-0.069,0-0.035-0.136-0.069-0.172c-0.052-0.034-0.138-0.104-0.138-0.172c0-0.034,0.052-0.034,0.069-0.034
		c0-0.07-0.069-0.07-0.035-0.104l37.246-74.492c0.052-0.138,0.206-0.207,0.327-0.207
		C282.685,582.434,282.823,582.504,282.891,582.641z M442.994,582.434c-0.155,0-0.275,0.07-0.344,0.207l-37.247,74.492
		c-0.052,0.034,0.034,0.034,0.034,0.104c0,0-0.086,0-0.086,0.034c0,0.068,0.086,0.138,0.173,0.172c0,0.035,0,0.172,0.052,0.172
		c0.033,0.035,0.033,0,0.068,0c0.052,0,0.052,0.07,0.086,0.07h74.509c0.07,0,0.207-0.07,0.293-0.206
		c0.052-0.07,0.086-0.241,0.018-0.345l-37.245-74.492C443.27,582.504,443.098,582.434,442.994,582.434z M205.249,506.669h-0.017
		c-14.527,13.322-22.788,29.295-24.578,47.504c-1.033,9.225,0.551,16.214,4.664,20.826c4.149,4.579,10.93,6.885,20.155,6.851
		c9.432,0,16.248-2.341,20.276-6.953c3.89-4.476,5.284-11.153,4.131-19.862c-2.358-17.591-10.499-33.839-24.165-48.332
		C205.611,506.566,205.353,506.566,205.249,506.669z M365.542,581.849c9.432,0,16.249-2.341,20.276-6.953
		c3.889-4.476,5.284-11.153,4.131-19.862c-2.341-17.591-10.482-33.839-24.165-48.332c-0.138-0.136-0.344-0.136-0.465-0.034
		c-14.544,13.322-22.805,29.295-24.595,47.504c-1.033,9.225,0.551,16.214,4.682,20.826
		C349.535,579.578,356.299,581.883,365.542,581.849z M525.371,506.669c-14.493,13.322-22.789,29.295-24.579,47.504
		c-1.032,9.225,0.551,16.214,4.682,20.826c4.165,4.579,10.912,6.885,20.155,6.851c9.414,0,16.266-2.341,20.257-6.953
		c3.907-4.476,5.302-11.153,4.131-19.862c-2.339-17.591-10.465-33.839-24.13-48.332
		C525.714,506.566,525.525,506.566,525.371,506.669z M366.609,679.302c-14.527,13.287-22.788,29.295-24.561,47.538
		c-1.067,9.191,0.551,16.144,4.665,20.758c4.131,4.647,10.912,6.885,20.137,6.816c9.397,0,16.248-2.307,20.276-6.92
		c3.888-4.44,5.3-11.119,4.147-19.862c-2.393-17.555-10.517-33.803-24.166-48.331C366.988,679.165,366.764,679.165,366.609,679.302z
		 M626.247,251.428c-31.514,0-59.741,14.01-78.915,36.041c-4.32,4.992-8.192,10.396-11.532,16.11
		c-4.716,8.227-8.365,17.109-10.808,26.506c-3.58,13.081-19.828,9.019-17.97-1.652c3.51-15.215,9.844-29.363,18.485-41.825
		c-0.052,0-0.052,0-0.086-0.034c3.494-5.026,7.35-9.776,11.48-14.216h0.035c15.37-16.386,35.128-28.537,57.452-34.527
		c0.034-0.069,0.034-0.069,0.068-0.069c1.928-0.482,3.787-0.929,5.731-1.342c0.155-0.035,0.327-0.138,0.499-0.172
		c1.824-0.344,3.615-0.689,5.404-0.964c0.293-0.103,0.586-0.138,0.896-0.173c1.738-0.275,3.478-0.516,5.232-0.688
		c0.379-0.034,0.757-0.138,1.136-0.172c1.756-0.172,3.546-0.309,5.336-0.379c0.379-0.068,0.706-0.103,1.05-0.138
		c2.169-0.138,4.32-0.138,6.506-0.138c-1.565,0-3.081,0.07-4.63,0.104c0-1.17,0.07-2.307,0.07-3.442
		C621.687,103.063,518.658,0,391.463,0c-87.401,0-163.442,48.744-202.444,120.516c0.413,0.034,0.757,0.104,1.136,0.172
		c2.513,0.345,4.991,0.826,7.418,1.309c1.326,0.275,2.565,0.551,3.855,0.826c1.257,0.309,2.53,0.585,3.77,0.86
		c1.498,0.413,2.96,0.792,4.441,1.17c0.947,0.275,1.911,0.551,2.84,0.826c1.635,0.448,3.287,0.964,4.905,1.48
		c0.396,0.138,0.809,0.31,1.205,0.413c6.23,2.065,12.289,4.441,18.176,7.126l0.034,0.034
		c43.477,19.897,77.676,56.662,94.269,101.859c0,0,0-0.034,0.051-0.034c2.065,5.679,3.838,11.531,5.353,17.417c0,0,0,0-0.052,0
		c0.895,3.408,1.618,6.816,2.324,10.259c0.069,0.551,0.172,1.067,0.258,1.617c0.551,2.823,0.964,5.68,1.377,8.572
		c0.103,0.894,0.224,1.755,0.344,2.65c0.31,2.65,0.551,5.37,0.723,8.055c0.087,0.895,0.172,1.755,0.241,2.651
		c0.189,3.51,0.309,7.056,0.309,10.636c0,0.757-0.017,1.481-0.034,2.203c0,1.756-0.087,3.477-0.138,5.232
		c-0.121,2.341-0.241,4.682-0.465,6.988c-1.652,13.39-20.017,10.017-17.78-1.722c0.344-4.165,0.551-8.433,0.551-12.702
		c0-11.463-1.187-22.651-3.477-33.426c-1.325-6.334-3.029-12.495-5.06-18.519c-21.67-63.993-82.186-110.121-153.528-110.121
		C72.547,136.351,0,208.881,0,298.416c0,89.467,72.547,162.022,162.065,162.022h78.158h0.104h322.185h0.241h63.493
		c57.747,0,104.527-46.746,104.527-104.466C730.774,298.244,683.994,251.428,626.247,251.428z"/>
</g>
<g id="Layer_1">
</g>
</svg>
