<?xml version="1.0" encoding="iso-8859-1"?>
<!-- Generator: Adobe Illustrator 17.1.0, SVG Export Plug-In . SVG Version: 6.00 Build 0)  -->
<!DOCTYPE svg PUBLIC "-//W3C//DTD SVG 1.1//EN" "http://www.w3.org/Graphics/SVG/1.1/DTD/svg11.dtd">
<svg version="1.1" xmlns="http://www.w3.org/2000/svg" xmlns:xlink="http://www.w3.org/1999/xlink" x="0px" y="0px"
	 viewBox="0 0 730.757 789.328" style="enable-background:new 0 0 730.757 789.328;" xml:space="preserve">
<g id="mix-snow-rain">
	<path id="mix-snow-rain_1_" d="M621.618,233.631L621.618,233.631c1.531-0.035,3.063-0.069,4.612-0.069
		C624.665,233.562,623.149,233.596,621.618,233.631z M626.23,251.429c-31.496,0-59.724,13.941-78.897,36.041
		c-4.338,4.992-8.194,10.327-11.532,16.075c-4.751,8.159-8.399,17.109-10.81,26.541c-3.58,13.047-19.81,8.984-17.968-1.686
		c3.493-15.181,9.827-29.364,18.451-41.791l-0.035-0.068c3.478-5.027,7.299-9.742,11.482-14.217l0.033,0.035
		c15.371-16.386,35.13-28.537,57.436-34.596c0,0,0.052,0,0.07-0.035c1.894-0.516,3.786-0.929,5.714-1.342
		c0.155-0.069,0.327-0.138,0.517-0.173c1.806-0.343,3.58-0.654,5.404-0.998c0.293-0.034,0.602-0.138,0.878-0.138
		c1.738-0.275,3.478-0.482,5.232-0.723c0.397-0.035,0.757-0.07,1.136-0.104c1.774-0.207,3.564-0.344,5.354-0.447
		c0.361-0.035,0.722-0.07,1.084-0.104c0.619-0.069,1.222,0,1.842-0.069c0-1.101,0.07-2.238,0.07-3.442
		C621.687,103.063,518.623,0,391.464,0c-87.419,0-163.46,48.709-202.445,120.482c0.396,0.068,0.792,0.068,1.153,0.172
		c2.496,0.379,4.975,0.792,7.401,1.308c1.291,0.241,2.564,0.551,3.872,0.861c1.274,0.275,2.53,0.551,3.753,0.826
		c1.48,0.413,2.943,0.791,4.44,1.17c0.947,0.275,1.911,0.551,2.858,0.861c1.6,0.448,3.253,0.929,4.87,1.446
		c0.396,0.104,0.809,0.275,1.222,0.447c6.213,1.997,12.255,4.441,18.158,7.126h0.051c43.477,19.932,77.694,56.661,94.252,101.824
		c0,0,0,0,0.051,0c2.082,5.68,3.838,11.497,5.353,17.418c0,0,0,0-0.034,0c0.894,3.408,1.635,6.816,2.289,10.293
		c0.103,0.516,0.224,1.067,0.31,1.583c0.551,2.789,0.93,5.68,1.308,8.572c0.138,0.861,0.258,1.79,0.379,2.651
		c0.31,2.684,0.534,5.37,0.774,8.054c0.035,0.896,0.121,1.79,0.189,2.686c0.207,3.477,0.344,7.056,0.344,10.637
		c0,0.722-0.052,1.446-0.086,2.169c0,1.755-0.052,3.51-0.104,5.232c-0.155,2.341-0.31,4.682-0.447,6.953
		c-1.687,13.426-20.035,10.052-17.797-1.686c0.327-4.165,0.534-8.433,0.534-12.668c0-11.497-1.187-22.685-3.46-33.46
		c-1.325-6.334-3.029-12.461-5.06-18.52c-21.687-64.028-82.186-110.12-153.545-110.12C72.547,136.317,0,208.881,0,298.416
		c0,89.432,72.547,161.997,162.048,161.997h78.124h0.138h322.237h0.172h63.511c57.729,0,104.527-46.748,104.527-104.475
		C730.757,298.175,683.959,251.429,626.23,251.429z M178.726,572.874c4.028,0.999,7.934,0.449,11.601-1.686
		c3.735-2.065,6.058-5.129,7.091-9.26c1.153-3.959,0.637-7.883-1.48-11.566c-2.22-3.752-5.267-6.094-9.311-7.16
		c-4.028-1.102-7.935-0.586-11.583,1.549c-3.701,2.203-6.041,5.232-7.178,9.295c-0.585,2.305-0.671,4.578-0.292,6.643
		l-19.655,11.359v-22.823c1.979-0.687,3.769-1.892,5.473-3.544c2.977-2.892,4.509-6.506,4.509-10.81
		c0-4.199-1.515-7.813-4.492-10.808c-3.029-3.029-6.592-4.476-10.878-4.476c-4.183,0-7.866,1.515-10.826,4.476
		c-2.96,2.995-4.44,6.609-4.44,10.808c0,4.304,1.48,7.918,4.44,10.81c1.704,1.686,3.649,2.926,5.697,3.614v22.548l-19.759-11.257
		c0.378-1.962,0.275-4.2-0.344-6.54c-1.085-4.063-3.391-7.092-7.143-9.295c-3.649-2.135-7.59-2.65-11.549-1.549
		c-4.045,1.032-7.194,3.442-9.345,7.16c-2.169,3.786-2.668,7.607-1.566,11.67c1.05,3.992,3.459,7.091,7.212,9.156
		c3.494,2.203,7.366,2.686,11.6,1.686c2.289-0.653,4.337-1.72,5.904-3.132l19.57,11.291l-19.656,11.427
		c-1.703-1.341-3.631-2.339-5.817-2.96c-3.993-1.101-8.02-0.585-11.6,1.515c-3.752,2.135-6.196,5.301-7.212,9.295
		c-1.067,3.958-0.551,7.951,1.566,11.6c2.117,3.718,5.163,6.092,9.345,7.194c4.028,1.067,7.934,0.517,11.549-1.584
		c3.753-2.099,6.058-5.129,7.125-9.26c0.689-2.168,0.775-4.44,0.362-6.713l19.552-11.255v22.788
		c-2.014,0.724-3.872,1.962-5.387,3.478c-2.978,2.994-4.458,6.643-4.458,10.842c0,4.338,1.446,7.884,4.458,10.913
		c2.977,2.926,6.575,4.44,10.722,4.44c4.131,0,7.832-1.48,10.878-4.44c3.012-3.029,4.492-6.575,4.492-10.913
		c0-4.199-1.515-7.849-4.492-10.808c-1.515-1.55-3.356-2.788-5.646-3.614v-22.617l19.811,11.429
		c-0.378,2.135-0.292,4.234,0.292,6.471c1.136,4.131,3.58,7.23,7.178,9.26c3.631,2.101,7.59,2.652,11.583,1.516
		c4.148-1.034,7.177-3.374,9.311-7.126c2.117-3.684,2.633-7.609,1.48-11.6c-1.032-4.131-3.356-7.195-7.091-9.295
		c-3.667-2.065-7.573-2.616-11.601-1.549c-2.41,0.654-4.32,1.72-5.921,3.133l-19.621-11.326l19.707-11.429
		C174.578,571.187,176.523,572.221,178.726,572.874z M669.054,572.874c4.027,0.999,7.934,0.449,11.6-1.686
		c3.7-2.065,6.093-5.129,7.091-9.26c1.137-3.959,0.638-7.883-1.48-11.566c-2.203-3.752-5.249-6.094-9.311-7.16
		c-4.044-1.102-7.951-0.586-11.549,1.549c-3.718,2.203-6.058,5.232-7.194,9.295c-0.638,2.305-0.723,4.578-0.293,6.643
		l-19.672,11.359v-22.823c1.996-0.687,3.804-1.858,5.525-3.544c2.926-2.892,4.439-6.506,4.439-10.81
		c0-4.199-1.513-7.813-4.439-10.808c-3.065-3.029-6.593-4.476-10.913-4.476c-4.165,0-7.813,1.515-10.774,4.476
		c-2.995,2.995-4.51,6.609-4.51,10.808c0,4.304,1.515,7.918,4.51,10.81c1.669,1.686,3.596,2.926,5.645,3.614v22.548l-19.742-11.257
		c0.379-1.962,0.275-4.2-0.344-6.54c-1.085-4.063-3.408-7.092-7.144-9.295c-3.666-2.135-7.625-2.65-11.548-1.549
		c-4.029,1.032-7.178,3.442-9.346,7.16c-2.187,3.786-2.703,7.607-1.602,11.67c1.102,3.992,3.494,7.091,7.194,9.156
		c3.512,2.203,7.401,2.686,11.636,1.686c2.307-0.653,4.32-1.72,5.921-3.132l19.552,11.291l-19.638,11.427
		c-1.704-1.341-3.632-2.339-5.835-2.96c-3.993-1.101-8.02-0.585-11.636,1.515c-3.7,2.135-6.143,5.301-7.194,9.295
		c-1.102,3.958-0.551,7.951,1.602,11.6c2.116,3.718,5.145,6.092,9.346,7.194c3.993,1.067,7.883,0.517,11.548-1.584
		c3.735-2.099,6.059-5.129,7.108-9.26c0.654-2.168,0.758-4.44,0.379-6.713l19.553-11.255v22.788
		c-2.031,0.724-3.872,1.962-5.388,3.478c-2.926,2.994-4.492,6.643-4.492,10.842c0,4.338,1.481,7.884,4.492,10.913
		c2.977,2.926,6.575,4.44,10.706,4.44c4.165,0,7.832-1.48,10.913-4.44c2.977-3.029,4.439-6.575,4.439-10.913
		c0-4.199-1.513-7.849-4.439-10.808c-1.532-1.55-3.392-2.788-5.663-3.614v-22.617l19.81,11.429
		c-0.429,2.135-0.327,4.234,0.293,6.471c1.136,4.131,3.544,7.23,7.194,9.26c3.598,2.101,7.573,2.652,11.549,1.516
		c4.148-1.034,7.196-3.374,9.311-7.126c2.119-3.684,2.618-7.609,1.48-11.6c-0.998-4.131-3.391-7.195-7.091-9.295
		c-3.666-2.065-7.573-2.616-11.6-1.549c-2.394,0.654-4.338,1.72-5.904,3.133l-19.638-11.326l19.724-11.429
		C664.888,571.187,666.867,572.221,669.054,572.874z M546.489,719.449c4.045,0.998,7.934,0.481,11.584-1.584
		c3.716-2.168,6.041-5.197,7.125-9.328c1.137-3.994,0.603-7.85-1.515-11.566c-2.185-3.753-5.215-6.094-9.311-7.16
		c-4.079-1.102-7.952-0.62-11.584,1.513c-3.682,2.203-6.041,5.232-7.194,9.295c-0.569,2.307-0.653,4.578-0.258,6.677l-19.656,11.326
		v-22.857c1.996-0.654,3.804-1.79,5.508-3.512c2.961-2.857,4.474-6.506,4.474-10.808c0-4.166-1.513-7.78-4.474-10.776
		c-3.029-3.029-6.591-4.508-10.896-4.508c-4.199,0-7.813,1.549-10.792,4.508c-2.977,2.995-4.491,6.609-4.491,10.776
		c0,4.303,1.513,7.951,4.491,10.808c1.704,1.722,3.598,2.926,5.629,3.65v22.582l-19.742-11.36c0.413-1.928,0.275-4.165-0.361-6.506
		c-1.032-4.027-3.374-7.092-7.074-9.295c-3.752-2.133-7.625-2.615-11.618-1.513c-3.975,1.066-7.108,3.441-9.276,7.16
		c-2.221,3.82-2.721,7.607-1.62,11.669c1.085,3.993,3.46,7.058,7.212,9.225c3.46,2.065,7.384,2.582,11.55,1.584
		c2.341-0.654,4.389-1.756,5.973-3.133l19.552,11.291l-19.656,11.429c-1.722-1.343-3.598-2.273-5.869-2.892
		c-3.941-1.136-7.952-0.619-11.55,1.515c-3.752,2.099-6.127,5.266-7.212,9.26c-1.084,3.959-0.551,7.918,1.62,11.6
		c2.082,3.719,5.129,6.059,9.276,7.196c4.045,1.066,7.918,0.515,11.618-1.618c3.7-2.065,6.042-5.129,7.074-9.26
		c0.689-2.135,0.808-4.372,0.361-6.679l19.553-11.291v22.823c-1.996,0.723-3.856,1.894-5.352,3.51
		c-2.995,2.995-4.493,6.609-4.493,10.81c0,4.303,1.464,7.883,4.493,10.844c2.942,2.995,6.522,4.474,10.705,4.474
		c4.131,0,7.815-1.479,10.896-4.474c3.013-2.961,4.474-6.541,4.474-10.844c0-4.2-1.513-7.815-4.474-10.81
		c-1.549-1.617-3.391-2.788-5.697-3.614v-22.582l19.846,11.394c-0.395,2.099-0.311,4.234,0.258,6.438
		c1.153,4.097,3.58,7.262,7.194,9.26c3.615,2.134,7.609,2.65,11.584,1.549c4.131-1.067,7.194-3.373,9.311-7.126
		c2.117-3.682,2.652-7.607,1.515-11.6c-1.084-4.131-3.408-7.16-7.125-9.26c-3.649-2.134-7.539-2.65-11.584-1.618
		c-2.393,0.758-4.32,1.79-5.921,3.167l-19.656-11.359l19.742-11.429C542.34,717.831,544.303,718.795,546.489,719.449z
		 M510.774,620.86c14.458-15.354,23.081-32.565,25.559-51.118c1.187-9.227-0.275-16.283-4.371-20.999
		c-4.252-4.853-11.516-7.332-21.448-7.332c-9.793-0.104-16.953,2.341-21.325,7.194c-4.371,4.853-6.058,12.255-4.957,21.963
		c1.894,19.311,10.603,36.247,26.024,50.292C510.379,620.998,510.619,620.998,510.774,620.86z M423.907,572.874
		c4.027,0.999,7.917,0.449,11.583-1.686c3.735-2.065,6.076-5.129,7.144-9.26c1.102-3.959,0.603-7.883-1.516-11.566
		c-2.254-3.752-5.301-6.094-9.328-7.16c-4.079-1.102-7.97-0.586-11.566,1.549c-3.718,2.203-6.059,5.232-7.212,9.295
		c-0.603,2.305-0.671,4.578-0.275,6.643l-19.656,11.359v-22.823c2.015-0.687,3.787-1.858,5.508-3.544
		c2.961-2.892,4.458-6.506,4.458-10.81c0-4.199-1.497-7.813-4.458-10.808c-3.012-3.029-6.557-4.476-10.912-4.476
		c-4.234,0-7.797,1.515-10.792,4.476c-2.943,2.995-4.474,6.609-4.474,10.808c0,4.304,1.531,7.918,4.474,10.81
		c1.688,1.686,3.616,2.926,5.68,3.614v22.548l-19.724-11.257c0.396-1.962,0.258-4.2-0.378-6.54
		c-1.067-4.063-3.339-7.092-7.109-9.295c-3.752-2.135-7.59-2.65-11.617-1.549c-3.993,1.032-7.109,3.442-9.312,7.16
		c-2.151,3.786-2.667,7.607-1.583,11.67c1.05,3.992,3.477,7.091,7.228,9.156c3.477,2.203,7.367,2.686,11.584,1.686
		c2.289-0.653,4.354-1.72,5.938-3.132l19.535,11.291L357.47,592.46c-1.721-1.341-3.597-2.339-5.817-2.96
		c-3.976-1.101-8.004-0.585-11.584,1.515c-3.752,2.135-6.179,5.301-7.228,9.295c-1.084,3.958-0.517,7.951,1.583,11.6
		c2.135,3.718,5.198,6.092,9.312,7.194c4.079,1.067,7.951,0.517,11.617-1.584c3.718-2.099,6.042-5.129,7.074-9.26
		c0.706-2.168,0.844-4.44,0.413-6.713l19.518-11.255v22.788c-1.997,0.724-3.873,1.962-5.354,3.478
		c-2.994,2.994-4.474,6.643-4.474,10.842c0,4.338,1.429,7.884,4.474,10.913c2.945,2.926,6.525,4.44,10.672,4.44
		c4.183,0,7.849-1.48,10.912-4.44c2.961-3.029,4.458-6.575,4.458-10.913c0-4.199-1.497-7.849-4.458-10.808
		c-1.515-1.55-3.408-2.788-5.679-3.614v-22.617l19.828,11.429c-0.395,2.135-0.327,4.234,0.275,6.471
		c1.153,4.131,3.564,7.23,7.212,9.26c3.58,2.101,7.573,2.652,11.566,1.516c4.113-1.034,7.16-3.374,9.328-7.126
		c2.118-3.684,2.618-7.609,1.516-11.6c-1.067-4.131-3.408-7.195-7.144-9.295c-3.666-2.065-7.555-2.616-11.583-1.549
		c-2.358,0.654-4.338,1.72-5.955,3.133l-19.588-11.326l19.724-11.429C419.725,571.187,421.687,572.221,423.907,572.874z
		 M387.918,687.985c-9.776-0.068-16.936,2.341-21.274,7.194c-4.388,4.889-6.11,12.256-4.974,21.997
		c1.877,19.311,10.585,36.249,25.991,50.294c0.154,0.172,0.378,0.136,0.533,0c14.474-15.354,23.063-32.599,25.541-51.154
		c1.239-9.225-0.292-16.282-4.371-20.998C405.112,690.464,397.9,687.985,387.918,687.985z M301.342,719.449
		c3.993,0.998,7.9,0.481,11.566-1.584c3.718-2.168,6.093-5.197,7.126-9.328c1.102-3.994,0.602-7.85-1.532-11.566
		c-2.203-3.753-5.249-6.094-9.26-7.16c-4.097-1.102-7.986-0.62-11.635,1.513c-3.701,2.203-6.041,5.232-7.16,9.295
		c-0.637,2.307-0.705,4.578-0.275,6.677l-19.656,11.326v-22.857c1.945-0.654,3.787-1.79,5.457-3.512
		c2.977-2.857,4.474-6.506,4.474-10.808c0-4.166-1.497-7.78-4.474-10.776c-2.995-3.029-6.541-4.508-10.878-4.508
		c-4.183,0-7.832,1.549-10.81,4.508c-2.96,2.995-4.474,6.609-4.474,10.776c0,4.303,1.515,7.951,4.474,10.808
		c1.722,1.722,3.615,2.926,5.68,3.65v22.582l-19.742-11.36c0.379-1.928,0.292-4.165-0.344-6.506
		c-1.067-4.027-3.408-7.092-7.142-9.295c-3.701-2.133-7.573-2.615-11.601-1.513c-4.01,1.066-7.108,3.441-9.294,7.16
		c-2.151,3.82-2.685,7.607-1.566,11.669c1.016,3.993,3.46,7.058,7.212,9.225c3.459,2.065,7.35,2.582,11.583,1.584
		c2.272-0.654,4.337-1.756,5.921-3.133l19.553,11.291l-19.655,11.429c-1.704-1.307-3.632-2.273-5.818-2.892
		c-3.976-1.136-8.003-0.619-11.583,1.515c-3.752,2.099-6.196,5.266-7.212,9.26c-1.118,3.959-0.585,7.918,1.566,11.6
		c2.151,3.719,5.163,6.059,9.294,7.196c4.079,1.066,7.951,0.515,11.601-1.618c3.735-2.065,6.075-5.129,7.142-9.26
		c0.654-2.135,0.74-4.372,0.344-6.679l19.552-11.291v22.823c-2.031,0.723-3.855,1.894-5.404,3.51
		c-2.96,2.995-4.458,6.609-4.458,10.81c0,4.303,1.446,7.883,4.458,10.844c2.995,2.995,6.592,4.474,10.723,4.474
		c4.165,0,7.849-1.479,10.878-4.474c3.029-2.961,4.474-6.541,4.474-10.844c0-4.2-1.497-7.815-4.474-10.81
		c-1.498-1.617-3.374-2.788-5.628-3.614v-22.582l19.776,11.394c-0.378,2.099-0.31,4.234,0.327,6.438
		c1.119,4.097,3.563,7.262,7.16,9.26c3.597,2.134,7.624,2.65,11.635,1.549c4.131-1.067,7.142-3.373,9.26-7.126
		c2.134-3.682,2.634-7.607,1.532-11.6c-1.033-4.131-3.408-7.16-7.126-9.26c-3.666-2.134-7.573-2.65-11.6-1.618
		c-2.375,0.758-4.303,1.79-5.887,3.167l-19.656-11.359l19.725-11.429C297.143,717.831,299.105,718.795,301.342,719.449z
		 M265.594,620.86c14.492-15.354,23.064-32.565,25.559-51.118c1.222-9.227-0.241-16.283-4.372-20.999
		c-4.251-4.853-11.48-7.332-21.445-7.332c-9.759-0.104-16.919,2.341-21.291,7.194c-4.406,4.853-6.059,12.255-4.974,21.963
		c1.91,19.311,10.636,36.247,26.024,50.292C265.215,620.998,265.456,620.998,265.594,620.86z"/>
</g>
<g id="Layer_1">
</g>
</svg>
