<?xml version="1.0" encoding="iso-8859-1"?>
<!-- Generator: Adobe Illustrator 17.1.0, SVG Export Plug-In . SVG Version: 6.00 Build 0)  -->
<!DOCTYPE svg PUBLIC "-//W3C//DTD SVG 1.1//EN" "http://www.w3.org/Graphics/SVG/1.1/DTD/svg11.dtd">
<svg version="1.1" xmlns="http://www.w3.org/2000/svg" xmlns:xlink="http://www.w3.org/1999/xlink" x="0px" y="0px"
	 viewBox="0 0 699.827 793.39" style="enable-background:new 0 0 699.827 793.39;" xml:space="preserve">
<g id="mix-rainfall">
	<path id="mix-rainfall_1_" d="M144.13,617.212h113.219L116.144,793.39l85.302-144.027l-102.1-1.411l55.973-148.158l75.456,2.754
		L144.13,617.212z M599.724,240.792c-30.155,0-57.211,13.425-75.558,34.526c-4.166,4.75-7.85,9.914-11.051,15.422
		c-4.544,7.848-8.02,16.386-10.361,25.404c-3.408,12.53-18.968,8.606-17.212-1.618c3.374-14.526,9.433-28.124,17.694-40.034
		c-0.035-0.035-0.035-0.035-0.07-0.035c3.374-4.819,7.022-9.397,11.015-13.632c0,0,0.034,0,0.034,0.07
		c14.699-15.697,33.633-27.367,55.009-33.15c0.034-0.034,0.034-0.034,0.068-0.034c1.824-0.483,3.649-0.896,5.508-1.343
		c0.138,0,0.311-0.069,0.483-0.069c1.72-0.378,3.442-0.723,5.129-0.999c0.31-0.068,0.585-0.103,0.86-0.138
		c1.652-0.275,3.339-0.516,5.026-0.654c0.344-0.035,0.723-0.138,1.066-0.138c1.688-0.206,3.408-0.275,5.13-0.413
		c0.344-0.035,0.688-0.103,0.998-0.103c2.065-0.104,4.131-0.172,6.23-0.172c-1.479,0-2.96,0.069-4.406,0.103
		c0-1.102,0.034-2.168,0.034-3.27C595.352,98.726,496.661,0,374.905,0c-83.718,0-156.558,46.678-193.908,115.421
		c0.379,0.035,0.758,0.07,1.101,0.172c2.41,0.344,4.785,0.757,7.126,1.239c1.239,0.241,2.444,0.551,3.684,0.791
		c1.17,0.275,2.409,0.551,3.614,0.861c1.411,0.344,2.823,0.723,4.235,1.102c0.894,0.275,1.824,0.516,2.719,0.757
		c1.584,0.482,3.167,0.964,4.682,1.411c0.413,0.172,0.791,0.31,1.17,0.413c5.955,1.962,11.738,4.268,17.383,6.817l0.07,0.034
		c41.618,19.071,74.389,54.32,90.257,97.521c0,0,0,0,0.035,0c1.997,5.474,3.718,11.015,5.163,16.696c0,0,0,0-0.069,0
		c0.861,3.27,1.549,6.54,2.238,9.811c0.068,0.551,0.172,1.032,0.241,1.549c0.516,2.72,0.929,5.439,1.308,8.193
		c0.104,0.861,0.206,1.721,0.344,2.547c0.275,2.582,0.516,5.163,0.688,7.711c0.069,0.86,0.173,1.721,0.207,2.547
		c0.206,3.373,0.344,6.782,0.344,10.224c0,0.688-0.035,1.411-0.103,2.099c0,1.686-0.035,3.339-0.07,4.991
		c-0.138,2.238-0.275,4.441-0.447,6.679c-1.618,12.805-19.174,9.604-17.04-1.652c0.31-3.993,0.517-8.021,0.517-12.117
		c0-11.016-1.136-21.688-3.339-32.049c-1.239-6.024-2.892-11.945-4.819-17.728c-20.758-61.308-78.727-105.473-147.057-105.473
		C69.466,130.568,0,200.035,0,285.818c0,85.645,69.466,155.181,155.181,155.181h74.836h0.104h308.605h0.172h60.826
		c55.285,0,100.103-44.82,100.103-100.069C699.827,285.611,655.008,240.792,599.724,240.792z M359.793,521.549
		c4.027-6.92,1.652-15.801-5.266-19.863c-6.988-3.992-15.904-1.617-19.897,5.371l-50.602,87.607
		c-4.028,6.885-1.618,15.835,5.37,19.828c6.919,4.027,15.87,1.652,19.828-5.336L359.793,521.549z M422.237,501.686
		c-6.919-3.992-15.835-1.617-19.862,5.371l-50.568,87.607c-3.993,6.885-1.618,15.835,5.335,19.828
		c6.954,4.027,15.87,1.652,19.863-5.336l50.568-87.607C431.566,514.629,429.225,505.749,422.237,501.686z M490.017,501.686
		c-6.92-3.992-15.836-1.617-19.863,5.371l-50.568,87.607c-4.027,6.885-1.652,15.835,5.336,19.828
		c6.953,4.027,15.835,1.652,19.862-5.336l50.568-87.607C499.38,514.629,497.004,505.749,490.017,501.686z M492.668,614.492
		c6.988,4.027,15.869,1.652,19.862-5.336l50.602-87.607c4.029-6.92,1.618-15.801-5.335-19.863
		c-6.954-3.992-15.87-1.617-19.862,5.371l-50.569,87.607C483.304,601.549,485.713,610.499,492.668,614.492z M625.542,501.686
		c-6.919-3.992-15.835-1.617-19.828,5.371l-50.603,87.607c-3.993,6.885-1.618,15.835,5.336,19.828
		c6.988,4.027,15.869,1.652,19.862-5.336l50.568-87.607C634.905,514.629,632.564,505.749,625.542,501.686z M379.759,635.456
		c-6.92-3.959-15.869-1.618-19.828,5.37l-50.603,87.607c-4.027,6.92-1.652,15.801,5.336,19.863
		c6.954,3.992,15.869,1.617,19.862-5.336l50.569-87.609C389.087,648.399,386.747,639.553,379.759,635.456z M447.538,635.456
		c-6.954-3.959-15.835-1.618-19.862,5.37l-50.603,87.607c-3.993,6.92-1.583,15.801,5.336,19.863
		c6.953,3.992,15.835,1.617,19.862-5.336l50.569-87.609C456.867,648.399,454.526,639.553,447.538,635.456z M515.318,635.456
		c-6.988-3.959-15.869-1.618-19.896,5.37l-50.534,87.607c-4.029,6.92-1.652,15.801,5.301,19.863
		c6.954,3.992,15.835,1.617,19.862-5.336l50.603-87.609C524.612,648.399,522.272,639.553,515.318,635.456z"/>
</g>
<g id="Layer_1">
</g>
</svg>
