<?xml version="1.0" encoding="iso-8859-1"?>
<!-- Generator: Adobe Illustrator 17.1.0, SVG Export Plug-In . SVG Version: 6.00 Build 0)  -->
<!DOCTYPE svg PUBLIC "-//W3C//DTD SVG 1.1//EN" "http://www.w3.org/Graphics/SVG/1.1/DTD/svg11.dtd">
<svg version="1.1" xmlns="http://www.w3.org/2000/svg" xmlns:xlink="http://www.w3.org/1999/xlink" x="0px" y="0px"
	 viewBox="0 0 729.14 730.767" style="enable-background:new 0 0 729.14 730.767;" xml:space="preserve">
<g id="moon-stars">
	<path id="moon-stars_1_" d="M576.714,210.879l33.803-16.489c3.133-1.549,5.182,0.034,4.476,3.511l-7.471,36.867
		c-0.739,3.442,0.706,8.365,3.185,10.913l26.11,27.057c2.427,2.513,1.584,4.991-1.944,5.37l-37.367,4.268
		c-3.512,0.413-7.745,3.305-9.467,6.403l-17.607,33.184c-1.688,3.098-4.252,3.064-5.697-0.172l-15.577-34.182
		c-1.497-3.236-5.525-6.438-9.018-7.022l-37.041-6.506c-3.459-0.654-4.181-3.133-1.565-5.542l27.694-25.37
		c2.615-2.409,4.354-7.228,3.872-10.74l-5.216-37.211c-0.481-3.511,1.636-4.923,4.682-3.236l32.755,18.52
		C568.365,212.256,573.513,212.359,576.714,210.879z M171.292,649.33l41.498-40.482c3.924-3.821,2.633-7.573-2.737-8.33
		l-57.367-8.365c-5.387-0.792-11.79-5.404-14.251-10.259l-25.577-52.048c-2.461-4.853-6.386-4.853-8.829,0l-25.611,52.048
		c-2.427,4.855-8.829,9.467-14.234,10.259L6.8,600.518c-5.422,0.757-6.627,4.508-2.703,8.33l41.498,40.482
		c3.907,3.821,6.369,11.359,5.456,16.695l-9.827,57.109c-0.913,5.44,2.271,7.779,7.108,5.232l51.308-27.022
		c4.853-2.513,12.771-2.513,17.591,0l51.29,27.022c4.854,2.547,8.038,0.207,7.126-5.232l-9.828-57.109
		C164.906,660.689,167.333,653.151,171.292,649.33z M572.771,574.39c-139.019,58.416-299.018-6.885-357.469-145.921
		c-58.434-139.002,6.885-299.07,145.886-357.521c78.985-33.149,164.716-26.368,234.767,11.118
		C494.7-0.24,352.514-25.472,223.839,28.607C37.815,106.817-49.517,320.965,28.624,506.92c8.52,20.275,18.709,39.207,30.19,57.039
		l22.375-45.335c5.56-11.153,15.731-17.866,27.229-17.866c11.531,0,21.704,6.713,27.228,17.866l24.131,48.881l53.941,7.813
		c12.341,1.791,21.841,9.399,25.404,20.379c3.58,10.947,0.361,22.685-8.589,31.43l-39.019,38.003l4.063,23.717
		c93.201,48.847,206.729,57.246,311.376,13.288C635.611,648.09,717.041,528.814,729.14,398.899
		C706.92,475.217,651.739,541.206,572.771,574.39z"/>
</g>
<g id="Layer_1">
</g>
</svg>
