<?xml version="1.0" encoding="iso-8859-1"?>
<!-- Generator: Adobe Illustrator 17.1.0, SVG Export Plug-In . SVG Version: 6.00 Build 0)  -->
<!DOCTYPE svg PUBLIC "-//W3C//DTD SVG 1.1//EN" "http://www.w3.org/Graphics/SVG/1.1/DTD/svg11.dtd">
<svg version="1.1" xmlns="http://www.w3.org/2000/svg" xmlns:xlink="http://www.w3.org/1999/xlink" x="0px" y="0px"
	 viewBox="0 0 835.161 518.323" style="enable-background:new 0 0 835.161 518.323;" xml:space="preserve">
<g id="partly-cloudy-2">
	<path id="partly-cloudy-2_1_" d="M559.483,101.525c24.803-13.976,54.373-19.931,84.648-14.802
		c69.966,11.91,117.057,78.245,105.164,148.227c-5.354,31.704-22.013,58.657-45.026,77.626
		c-18.176-16.523-41.376-27.539-67.039-30.293c0.068-1.344,0.136-2.652,0.136-3.959C637.366,208.41,607.212,145.587,559.483,101.525
		z M649.467,60.01c4.648,0.757,9.122-2.375,9.862-7.022l7.298-42.995c0.792-4.647-2.341-9.122-6.987-9.88
		c-4.665-0.757-9.14,2.341-9.881,6.988l-7.314,42.995C641.636,54.778,644.785,59.219,649.467,60.01z M555.508,61.422
		c1.325,4.544,6.058,7.16,10.636,5.817c4.528-1.308,7.126-6.059,5.819-10.637L559.69,14.744c-1.325-4.544-6.127-7.16-10.654-5.783
		c-4.526,1.308-7.178,6.024-5.783,10.602L555.508,61.422z M828.021,241.215l-42.978-7.332c-4.664-0.757-9.088,2.41-9.896,7.022
		c-0.792,4.682,2.359,9.122,7.022,9.879l42.994,7.298c4.648,0.826,9.104-2.341,9.88-7.022
		C835.818,246.448,832.685,241.973,828.021,241.215z M739.742,89.546l25.404-35.456c2.721-3.855,1.843-9.225-1.996-11.979
		c-3.838-2.719-9.191-1.824-11.962,1.997l-25.371,35.491c-2.788,3.855-1.858,9.191,1.997,11.945
		C731.669,94.262,736.971,93.401,739.742,89.546z M779.501,159.047l42.202-10.844c4.648-1.17,7.384-5.817,6.248-10.43
		c-1.239-4.544-5.885-7.333-10.447-6.162l-42.272,10.844c-4.579,1.204-7.315,5.886-6.18,10.43
		C770.276,157.429,774.905,160.251,779.501,159.047z M752.978,314.985c-3.907-2.582-9.225-1.515-11.842,2.444
		c-2.582,3.889-1.566,9.224,2.375,11.876l36.317,24.165c3.924,2.618,9.225,1.549,11.893-2.339c2.615-3.959,1.549-9.295-2.427-11.945
		L752.978,314.985z M673.253,339.425c-17.66-14.939-40.465-23.993-65.404-23.993c-25.611,0-48.881,9.604-66.799,25.302
		c-3.442,3.029-6.729,6.196-9.776,9.673c-4.165,4.819-7.951,10.052-11.153,15.595c-4.664,7.986-8.192,16.625-10.534,25.783
		c-3.51,12.668-19.225,8.709-17.486-1.652c3.459-14.735,9.587-28.469,17.968-40.551c-0.034-0.034-0.052-0.034-0.052-0.034
		c3.356-4.889,7.144-9.535,11.119-13.837l0.052,0.033c1.635-1.721,3.528-3.235,5.301-4.922
		c14.028-13.322,31.206-23.443,50.431-28.64c0.016-0.035,0.086-0.035,0.086-0.035c1.824-0.481,3.682-0.928,5.576-1.307
		c0.121-0.07,0.293-0.102,0.465-0.138c1.738-0.379,3.494-0.689,5.232-0.964c0.327-0.07,0.602-0.138,0.894-0.172
		c1.704-0.275,3.356-0.481,5.061-0.654c0.397-0.034,0.74-0.138,1.119-0.172c1.686-0.173,3.391-0.31,5.18-0.379
		c0.345-0.034,0.688-0.102,1.016-0.138c0.603,0,1.205,0,1.842-0.034c0-1.102,0.052-2.203,0.052-3.305
		c0-66.506-29.173-126.024-75.25-166.953c-39.466-35.009-91.291-56.523-148.227-56.523c-84.819,0-158.641,47.298-196.472,116.936
		c0.396,0.035,0.723,0.069,1.119,0.173c2.393,0.378,4.802,0.757,7.177,1.273c1.256,0.241,2.479,0.551,3.735,0.792
		c1.205,0.275,2.444,0.62,3.684,0.86c1.411,0.379,2.891,0.723,4.268,1.136c0.964,0.275,1.876,0.516,2.771,0.791
		c1.584,0.448,3.184,0.93,4.733,1.446c0.413,0.104,0.826,0.275,1.222,0.379c6.041,1.996,11.893,4.337,17.607,6.919
		c0,0,0.018,0,0.052,0c42.186,19.415,75.404,55.077,91.48,98.932c0,0,0-0.033,0.052-0.033c1.996,5.472,3.735,11.118,5.18,16.867
		c0,0,0,0-0.034,0c0.843,3.339,1.618,6.643,2.254,9.948c0.104,0.585,0.19,1.067,0.275,1.55c0.5,2.754,0.913,5.576,1.291,8.33
		c0.121,0.86,0.258,1.72,0.396,2.65c0.275,2.547,0.499,5.129,0.671,7.746c0.07,0.894,0.172,1.72,0.241,2.581
		c0.19,3.442,0.292,6.851,0.292,10.363c0,0.722,0,1.445-0.034,2.099c0,1.756-0.069,3.408-0.138,5.129
		c-0.104,2.237-0.258,4.51-0.413,6.747c-1.652,12.977-19.45,9.708-17.281-1.652c0.327-4.097,0.533-8.227,0.533-12.323
		c0-11.155-1.187-21.998-3.356-32.428c-1.308-6.162-2.96-12.185-4.923-18.004c-21.015-62.169-79.776-106.919-149.036-106.919
		C70.465,203.694,0,274.09,0,361.044c0,86.849,70.465,157.279,157.316,157.279h75.834h0.103h312.754h0.189h61.653
		c56.041,0,101.428-45.404,101.428-101.445C709.277,385.759,695.284,358.015,673.253,339.425z"/>
</g>
<g id="Layer_1">
</g>
</svg>
