<?xml version="1.0" encoding="iso-8859-1"?>
<!-- Generator: Adobe Illustrator 17.1.0, SVG Export Plug-In . SVG Version: 6.00 Build 0)  -->
<!DOCTYPE svg PUBLIC "-//W3C//DTD SVG 1.1//EN" "http://www.w3.org/Graphics/SVG/1.1/DTD/svg11.dtd">
<svg version="1.1" xmlns="http://www.w3.org/2000/svg" xmlns:xlink="http://www.w3.org/1999/xlink" x="0px" y="0px"
	 viewBox="0 0 835.151 510.984" style="enable-background:new 0 0 835.151 510.984;" xml:space="preserve">
<g id="partly-cloudy">
	<path id="partly-cloudy_1_" d="M548.605,95.932c28.004-15.835,60.929-21.514,92.598-16.248
		c76.455,13.012,128.125,85.817,115.13,162.237c-5.662,33.228-23.167,63.451-49.312,84.965l-11.617-14.113
		c22.771-18.76,38.021-45,42.909-73.916c11.291-66.506-33.631-129.776-100.155-141.136c-27.934-4.682-55.818,0.172-80.568,14.182
		L548.605,95.932z M645.146,61.405c4.785,0.792,9.311-2.409,10.102-7.194l7.453-43.993c0.844-4.784-2.393-9.294-7.178-10.086
		c-4.732-0.826-9.311,2.341-10.086,7.092l-7.47,43.992C637.142,56.069,640.377,60.578,645.146,61.405z M549.018,62.851
		c1.359,4.612,6.196,7.298,10.844,5.955c4.682-1.377,7.35-6.23,6.007-10.912l-12.582-42.823c-1.359-4.647-6.248-7.298-10.878-5.956
		c-4.664,1.377-7.332,6.231-5.921,10.878L549.018,62.851z M827.916,246.81l-44.062-7.505c-4.766-0.757-9.276,2.41-10.086,7.195
		c-0.826,4.819,2.41,9.329,7.16,10.086l44.01,7.504c4.785,0.792,9.279-2.409,10.087-7.16
		C835.834,252.18,832.633,247.601,827.916,246.81z M737.521,91.594l25.99-36.248c2.806-3.958,1.928-9.431-2.031-12.255
		c-3.924-2.788-9.397-1.893-12.221,2.031L723.253,81.44c-2.806,3.958-1.876,9.397,2.048,12.185
		C729.243,96.448,734.733,95.553,737.521,91.594z M778.21,162.782l43.166-11.153c4.768-1.204,7.573-5.99,6.403-10.637
		c-1.24-4.682-6.007-7.538-10.706-6.334l-43.202,11.153c-4.716,1.171-7.504,5.956-6.334,10.568
		C768.743,161.164,773.493,163.952,778.21,162.782z M751.118,322.274c-4.063-2.616-9.483-1.515-12.153,2.478
		c-2.684,4.061-1.583,9.501,2.428,12.187l37.143,24.715c4.044,2.72,9.483,1.618,12.169-2.375c2.65-4.063,1.583-9.536-2.446-12.221
		L751.118,322.274z M688.881,327.919c-18.072-15.318-41.394-24.51-66.919-24.51c-26.179,0-50.052,9.81-68.331,25.818
		c-3.544,3.097-6.917,6.368-10.034,9.914c-4.286,4.991-8.124,10.326-11.429,16.041c-4.732,8.124-8.33,17.006-10.758,26.334
		c-3.58,12.979-19.689,8.916-17.882-1.652c3.512-15.111,9.812-29.191,18.383-41.548c-0.052-0.035-0.052-0.035-0.052-0.035
		c3.442-5.025,7.262-9.742,11.393-14.148c0,0.035,0.035,0.035,0.035,0.035c1.686-1.79,3.614-3.34,5.404-4.992
		c14.388-13.7,31.911-24.027,51.635-29.397c0,0,0.052,0,0.104,0c1.842-0.517,3.734-0.964,5.645-1.343
		c0.172-0.068,0.344-0.104,0.499-0.138c1.808-0.378,3.596-0.689,5.37-0.964c0.31-0.104,0.603-0.138,0.878-0.24
		c1.755-0.241,3.477-0.448,5.198-0.62c0.379-0.034,0.774-0.138,1.136-0.172c1.738-0.173,3.546-0.309,5.318-0.449
		c0.344,0,0.706-0.034,1.034-0.034c0.635-0.034,1.256-0.034,1.858-0.034c0-1.205,0.086-2.307,0.086-3.442
		c0-68.029-29.862-128.959-77.005-170.818C500.069,75.657,447.039,53.66,388.795,53.66c-86.816,0-162.324,48.399-201.05,119.656
		c0.378,0.069,0.74,0.104,1.136,0.172c2.479,0.379,4.94,0.826,7.332,1.343c1.291,0.206,2.547,0.551,3.856,0.826
		c1.239,0.241,2.479,0.517,3.752,0.86c1.446,0.379,2.926,0.723,4.372,1.136c0.964,0.241,1.893,0.482,2.823,0.826
		c1.635,0.413,3.253,0.929,4.888,1.446c0.395,0.138,0.791,0.309,1.222,0.413c6.145,2.065,12.169,4.406,18.021,7.126h0.035
		c43.167,19.758,77.16,56.247,93.632,101.179c0,0,0,0,0.034-0.035c2.031,5.611,3.821,11.394,5.301,17.315c0,0,0,0-0.034,0
		c0.86,3.408,1.652,6.747,2.306,10.189c0.104,0.517,0.172,1.067,0.275,1.55c0.517,2.788,0.964,5.644,1.343,8.537
		c0.103,0.86,0.241,1.755,0.361,2.684c0.292,2.582,0.499,5.267,0.723,7.952c0.087,0.894,0.155,1.756,0.224,2.616
		c0.206,3.511,0.309,6.987,0.309,10.567c0,0.69-0.017,1.516-0.051,2.169c0,1.756-0.052,3.512-0.121,5.302
		c-0.121,2.237-0.258,4.544-0.448,6.849c-1.652,13.288-19.897,9.949-17.659-1.686c0.31-4.165,0.551-8.364,0.551-12.634
		c0-11.359-1.222-22.512-3.442-33.183c-1.343-6.3-3.064-12.358-5.061-18.383c-21.48-63.657-81.584-109.441-152.479-109.441
		C72.066,189.013,0,261.13,0,350.019C0,438.9,72.066,510.984,160.946,510.984h77.608h0.138h319.999h0.207h63.064
		c57.315,0,103.821-46.472,103.821-103.821C725.783,375.354,711.427,346.887,688.881,327.919z"/>
</g>
<g id="Layer_1">
</g>
</svg>
