<?xml version="1.0" encoding="iso-8859-1"?>
<!-- Generator: Adobe Illustrator 17.1.0, SVG Export Plug-In . SVG Version: 6.00 Build 0)  -->
<!DOCTYPE svg PUBLIC "-//W3C//DTD SVG 1.1//EN" "http://www.w3.org/Graphics/SVG/1.1/DTD/svg11.dtd">
<svg version="1.1" xmlns="http://www.w3.org/2000/svg" xmlns:xlink="http://www.w3.org/1999/xlink" x="0px" y="0px"
	 viewBox="0 0 835.146 598.284" style="enable-background:new 0 0 835.146 598.284;" xml:space="preserve">
<g id="partly-cloudy-night">
	<path id="partly-cloudy-night_1_" d="M450.188,0.178c28.64-1.102,57.953,2.892,86.679,12.805
		c120.121,41.549,185.387,170.121,149.707,290.809c-28.451,6.059-53.735,20.792-72.926,41.308
		c-24.234-30.43-61.136-52.633-103.976-61.067c4.114-8.365,7.763-17.074,10.895-26.093c17.074-49.398,16.799-100.62,2.513-146.988
		C509.879,68.232,484.767,29.644,450.188,0.178z M715.697,359.42c-13.065,0-25.611,2.135-37.367,6.058
		c-20.688,6.781-38.864,19.036-52.806,35.078c-4.957,5.714-9.363,11.876-13.167,18.485c-5.422,9.294-9.587,19.518-12.358,30.293
		c-4.079,14.94-22.634,10.259-20.567-1.962c4.043-17.349,11.273-33.529,21.101-47.746c-22.238-30.017-58.572-51.739-101.067-58.45
		c-9.02-1.412-18.296-2.203-27.85-2.203c-32.392,0-62.409,8.673-87.108,23.338c4.131,16.248,6.334,33.218,6.334,50.775
		c0,5.576-0.258,11.015-0.705,16.454c-1.928,15.353-22.909,11.498-20.328-1.858c0.379-4.855,0.62-9.708,0.62-14.595
		c0-13.116-1.377-25.852-3.941-38.177c-1.532-7.228-3.494-14.285-5.835-21.169c-24.733-73.185-93.924-125.852-175.439-125.852
		C82.926,227.889,0,310.78,0,413.087c0,102.306,82.926,185.198,185.215,185.198h89.311h368.623h72.548
		c65.972,0,119.448-53.461,119.448-119.45C835.146,412.913,781.669,359.42,715.697,359.42z M369.311,206.133l20.809,31.738
		l1.825-37.9l36.643-10.052l-35.525-13.39l1.824-37.969l-23.786,29.638l-35.49-13.459l20.826,31.772l-23.752,29.604L369.311,206.133
		z M373.734,83.207l17.229-8.296l16.643,9.501l-2.581-18.968l14.148-12.874l-18.795-3.442l-7.849-17.418l-9.088,16.833l-19.036,2.1
		l13.236,13.838L373.734,83.207z M210.223,135.943l14.028,19.311v-23.924l22.702-7.401l-22.702-7.367V92.674l-14.028,19.345
		l-22.702-7.401l14.045,19.312l-14.045,19.345L210.223,135.943z"/>
</g>
<g id="Layer_1">
</g>
</svg>
