<?xml version="1.0" encoding="iso-8859-1"?>
<!-- Generator: Adobe Illustrator 17.1.0, SVG Export Plug-In . SVG Version: 6.00 Build 0)  -->
<!DOCTYPE svg PUBLIC "-//W3C//DTD SVG 1.1//EN" "http://www.w3.org/Graphics/SVG/1.1/DTD/svg11.dtd">
<svg version="1.1" xmlns="http://www.w3.org/2000/svg" xmlns:xlink="http://www.w3.org/1999/xlink" x="0px" y="0px"
	 viewBox="0 0 730.741 570.662" style="enable-background:new 0 0 730.741 570.662;" xml:space="preserve">
<g id="rainy-2">
	<path id="rainy-2_1_" d="M730.741,219.621c0,57.762-46.782,104.467-104.511,104.467h-63.511H240.207h-78.141
		C72.565,324.088,0,251.635,0,162.1C0,72.565,72.565,0,162.065,0c71.325,0,131.91,46.127,153.528,110.155
		c2.031,6.024,3.787,12.186,5.095,18.52c2.238,10.809,3.442,21.962,3.442,33.425c0,4.268-0.207,8.537-0.551,12.737
		c-2.238,11.704,16.11,15.077,17.831,1.652c0.344-4.751,0.585-9.57,0.585-14.39c0-15.352-1.928-30.189-5.542-44.406
		c21.618-12.875,47.883-20.413,76.214-20.413c8.33,0,16.454,0.62,24.37,1.963c37.177,5.817,68.986,24.785,88.399,51.084
		c-8.571,12.427-14.905,26.54-18.415,41.755c-1.86,10.74,14.388,14.733,17.968,1.721c2.41-9.432,6.094-18.313,10.844-26.54
		c3.305-5.749,7.194-11.119,11.498-16.11c12.185-14.045,28.124-24.82,46.195-30.74c10.293-3.408,21.274-5.301,32.702-5.301
		C683.959,115.112,730.741,161.962,730.741,219.621z M194.01,381.505c-15.732,15.801-24.51,33.322-27.16,52.565
		c-0.86,10.499,0.896,17.523,5.267,22.789c4.372,5.232,12.29,6.987,21.893,6.987c10.465,0,17.522-1.755,21.928-6.987
		c4.337-5.266,6.127-12.29,4.337-22.789C217.659,414.827,208.881,397.306,194.01,381.505z M331.497,381.505c0,0,0,0-0.895,0
		c-15.732,15.801-24.509,33.322-26.265,52.565c-0.861,10.499,0.894,17.523,5.232,22.789c4.406,5.232,11.394,6.987,21.927,6.987
		c9.639,0,17.487-1.755,21.893-6.987c4.406-5.266,5.232-12.29,4.406-22.789C355.147,414.827,346.368,397.306,331.497,381.505z
		 M468.984,381.505c-0.894,0-0.894,0-0.894,0c-15.765,15.801-24.51,33.322-26.265,52.565c-1.72,10.499,0,17.523,4.372,22.789
		c4.372,5.232,12.289,6.987,21.893,6.987c10.533,0,17.557-1.755,21.927-6.987c4.372-5.266,6.128-12.29,5.232-22.789
		C492.599,414.827,483.855,397.306,468.984,381.505z M618.726,381.505c-15.765,15.801-25.404,33.322-27.16,52.565
		c-0.862,10.499,0.894,17.523,5.266,22.789c4.372,5.232,11.36,6.987,21.893,6.987c10.499,0,17.521-1.755,22.754-6.987
		c3.546-5.266,5.268-12.29,3.546-22.789C643.236,414.827,634.491,397.306,618.726,381.505z M269.329,490.077
		c-15.8,14.114-25.404,31.6-27.16,50.843c-0.894,10.465,0.896,17.453,5.267,22.719c4.371,5.302,11.394,7.022,21.893,7.022
		s17.522-1.721,21.858-7.022c4.406-5.266,6.162-12.255,4.406-20.998C292.977,523.399,284.234,505.878,269.329,490.077z
		 M406.85,490.077h-0.93c-15.731,14.114-24.51,31.6-26.264,50.843c-1.756,10.465,0,17.453,5.266,22.719
		c4.338,5.302,11.359,7.022,21.927,7.022c9.604,0,17.487-1.721,21.825-7.022c4.406-5.266,5.266-12.255,4.406-20.998
		C430.465,523.399,421.687,505.878,406.85,490.077z M539.931,490.077c-15.767,14.114-25.439,31.6-27.161,50.843
		c-0.894,10.465,0.862,17.453,5.232,22.719c4.372,5.302,12.29,7.022,21.929,7.022c10.465,0,17.487-1.721,21.893-7.022
		c4.337-5.266,6.127-12.255,4.337-20.998C563.545,523.399,554.802,505.878,539.931,490.077z"/>
</g>
<g id="Layer_1">
</g>
</svg>
