<?xml version="1.0" encoding="iso-8859-1"?>
<!-- Generator: Adobe Illustrator 17.1.0, SVG Export Plug-In . SVG Version: 6.00 Build 0)  -->
<!DOCTYPE svg PUBLIC "-//W3C//DTD SVG 1.1//EN" "http://www.w3.org/Graphics/SVG/1.1/DTD/svg11.dtd">
<svg version="1.1" xmlns="http://www.w3.org/2000/svg" xmlns:xlink="http://www.w3.org/1999/xlink" x="0px" y="0px"
	 viewBox="0 0 835.129 404.544" style="enable-background:new 0 0 835.129 404.544;" xml:space="preserve">
<g id="rainbow">
	<path id="rainbow_1_" d="M835.129,404.544h-62.978C764.871,214.768,609.105,63.03,417.608,63.03
		c-191.618,0-347.315,151.738-354.596,341.514H0C7.315,179.966,191.256,0,417.608,0C643.94,0,827.815,179.966,835.129,404.544z
		 M417.608,125.99c-156.833,0-284.389,123.511-291.704,278.554h62.96C195.99,284.303,295.525,188.95,417.608,188.95
		c122.031,0,221.463,95.353,228.605,215.594h63.012C701.963,249.501,574.337,125.99,417.608,125.99z M417.608,249.363
		c-88.76,0-161.17,68.296-168.262,155.181h55.439c6.868-56.558,54.441-100.379,112.823-100.379
		c58.278,0,105.835,43.821,112.702,100.379h55.508C578.847,317.659,506.23,249.363,417.608,249.363z"/>
</g>
<g id="Layer_1">
</g>
</svg>
