<?xml version="1.0" encoding="iso-8859-1"?>
<!-- Generator: Adobe Illustrator 17.1.0, SVG Export Plug-In . SVG Version: 6.00 Build 0)  -->
<!DOCTYPE svg PUBLIC "-//W3C//DTD SVG 1.1//EN" "http://www.w3.org/Graphics/SVG/1.1/DTD/svg11.dtd">
<svg version="1.1" xmlns="http://www.w3.org/2000/svg" xmlns:xlink="http://www.w3.org/1999/xlink" x="0px" y="0px"
	 viewBox="0 0 730.757 751.741" style="enable-background:new 0 0 730.757 751.741;" xml:space="preserve">
<g id="rainy">
	<path id="rainy_1_" d="M621.618,233.666L621.618,233.666c1.549-0.034,3.081-0.138,4.612-0.138
		C624.699,233.528,623.166,233.632,621.618,233.666z M626.23,251.394c-31.496,0-59.741,13.976-78.897,36.042
		c-4.322,4.991-8.194,10.361-11.515,16.144c-4.769,8.158-8.435,17.074-10.81,26.541c-3.598,13.011-19.81,8.915-18.021-1.722
		c3.528-15.214,9.88-29.329,18.486-41.824c0-0.035-0.035-0.035-0.035-0.035c3.478-5.025,7.315-9.776,11.482-14.251
		c0,0.034,0.016,0.034,0.05,0.034c15.336-16.317,35.095-28.537,57.384-34.527c0.034-0.034,0.07-0.034,0.104-0.034
		c1.876-0.517,3.77-0.998,5.731-1.377c0.172-0.034,0.345-0.069,0.517-0.138c1.772-0.379,3.614-0.757,5.386-0.998
		c0.309-0.07,0.585-0.138,0.896-0.173c1.72-0.275,3.493-0.516,5.215-0.688c0.379-0.035,0.74-0.138,1.171-0.173
		c1.756-0.172,3.528-0.309,5.318-0.413c0.344,0,0.688-0.068,1.067-0.103c0.603-0.035,1.238,0,1.858-0.035
		c0.018-1.136,0.104-2.306,0.104-3.442C621.721,103.098,518.623,0,391.464,0c-87.401,0-163.46,48.709-202.41,120.482
		c0.361,0.07,0.74,0.104,1.119,0.138c2.513,0.413,4.975,0.861,7.401,1.309c1.308,0.275,2.598,0.619,3.855,0.86
		c1.273,0.31,2.53,0.585,3.77,0.895c1.48,0.344,2.977,0.757,4.44,1.136c0.964,0.275,1.911,0.551,2.858,0.826
		c1.635,0.447,3.253,0.964,4.887,1.48c0.396,0.138,0.826,0.31,1.239,0.413c6.179,2.065,12.273,4.441,18.142,7.125l0.034,0.035
		c43.494,19.931,77.694,56.661,94.286,101.859v-0.034c2.082,5.68,3.873,11.532,5.404,17.453c-0.034,0-0.034,0-0.034,0
		c0.86,3.373,1.601,6.781,2.289,10.292c0.086,0.482,0.172,1.067,0.293,1.549c0.516,2.822,0.946,5.679,1.325,8.571
		c0.12,0.895,0.258,1.79,0.361,2.685c0.31,2.616,0.534,5.335,0.74,7.986c0.052,0.929,0.155,1.79,0.224,2.685
		c0.206,3.511,0.292,7.056,0.292,10.636c0,0.723,0,1.481,0,2.203c-0.051,1.756-0.086,3.477-0.172,5.232
		c-0.087,2.341-0.258,4.682-0.43,6.988c-1.704,13.39-20.035,9.983-17.78-1.721c0.327-4.2,0.534-8.399,0.534-12.703
		c0-11.463-1.222-22.65-3.442-33.39c-1.342-6.369-3.064-12.53-5.112-18.52c-21.636-64.028-82.169-110.189-153.511-110.189
		C72.582,136.283,0,208.847,0,298.382c0,89.501,72.582,162.065,162.065,162.065h78.141h0.086h322.238h0.224h63.475
		c57.729,0,104.527-46.816,104.527-104.509C730.757,298.244,683.959,251.394,626.23,251.394z M297.573,657.108
		c-0.138-0.206-0.447-0.206-0.603-0.034c-18.296,16.731-28.726,36.902-30.981,59.863c-1.29,11.566,0.689,20.379,5.921,26.231
		c5.232,5.783,13.735,8.673,25.353,8.571c11.876,0,20.447-2.927,25.559-8.744c4.905-5.645,6.643-14.045,5.18-25.026
		C325.06,695.835,314.819,675.387,297.573,657.108z M456.507,657.108c-0.173-0.206-0.397-0.206-0.586-0.034
		c-18.296,16.731-28.744,36.902-30.981,59.863c-1.325,11.566,0.689,20.379,5.921,26.231c5.216,5.783,13.735,8.673,25.353,8.571
		c11.824,0,20.465-2.927,25.525-8.744c4.887-5.645,6.677-14.045,5.232-25.026C483.994,695.835,473.769,675.387,456.507,657.108z
		 M217.487,520.172c-0.172-0.172-0.43-0.172-0.603-0.034c-18.295,16.765-28.709,36.868-30.963,59.897
		c-1.326,11.531,0.671,20.343,5.921,26.162c5.181,5.783,13.735,8.675,25.353,8.605c11.825,0,20.43-2.96,25.524-8.743
		c4.889-5.611,6.679-14.045,5.215-25.06C244.957,558.934,234.733,538.416,217.487,520.172z M377.676,520.172
		c-0.189-0.172-0.431-0.172-0.62-0.034c-18.313,16.765-28.691,36.868-30.997,59.897c-1.274,11.531,0.723,20.343,5.921,26.162
		c5.232,5.783,13.735,8.675,25.352,8.605c11.842,0,20.466-2.96,25.577-8.743c4.887-5.611,6.661-14.045,5.181-25.06
		C405.129,558.934,394.905,538.416,377.676,520.172z M537.866,520.172c-0.207-0.172-0.483-0.172-0.654-0.034
		c-18.279,16.765-28.708,36.868-30.963,59.897c-1.273,11.531,0.671,20.343,5.903,26.162c5.216,5.783,13.753,8.675,25.387,8.605
		c11.842,0,20.447-2.96,25.525-8.743c4.923-5.611,6.66-14.045,5.215-25.06C565.301,558.934,555.095,538.416,537.866,520.172z"/>
</g>
<g id="Layer_1">
</g>
</svg>
