<?xml version="1.0" encoding="iso-8859-1"?>
<!-- Generator: Adobe Illustrator 17.1.0, SVG Export Plug-In . SVG Version: 6.00 Build 0)  -->
<!DOCTYPE svg PUBLIC "-//W3C//DTD SVG 1.1//EN" "http://www.w3.org/Graphics/SVG/1.1/DTD/svg11.dtd">
<svg version="1.1" xmlns="http://www.w3.org/2000/svg" xmlns:xlink="http://www.w3.org/1999/xlink" x="0px" y="0px"
	 viewBox="0 0 730.774 721.403" style="enable-background:new 0 0 730.774 721.403;" xml:space="preserve">
<g id="snowy">
	<path id="snowy_1_" d="M621.601,233.701v-0.035c1.549-0.035,3.063-0.138,4.612-0.138
		C624.664,233.528,623.149,233.631,621.601,233.701z M626.213,251.463c-31.48,0-59.707,13.941-78.863,36.006
		c-4.338,4.992-8.21,10.362-11.55,16.11c-4.75,8.194-8.399,17.074-10.756,26.541c-3.632,13.047-19.846,8.984-18.021-1.721
		c3.494-15.181,9.828-29.329,18.469-41.756c0-0.103-0.035-0.103-0.035-0.103c3.46-5.026,7.315-9.776,11.464-14.217l0.018,0.07
		c15.404-16.386,35.11-28.572,57.435-34.596c0.034,0,0.086,0,0.121,0c1.84-0.551,3.752-0.999,5.714-1.412
		c0.12-0.034,0.309-0.068,0.481-0.138c1.791-0.378,3.632-0.723,5.388-0.998c0.309-0.069,0.585-0.138,0.93-0.172
		c1.704-0.275,3.425-0.483,5.197-0.689c0.379-0.035,0.758-0.104,1.171-0.138c1.756-0.207,3.51-0.275,5.284-0.413
		c0.395-0.035,0.756-0.104,1.119-0.104c0.619-0.034,1.221-0.034,1.824-0.069c0-1.136,0.086-2.272,0.086-3.408
		C621.687,103.098,518.606,0,391.497,0c-87.435,0-163.494,48.709-202.461,120.482c0.379,0.103,0.775,0.138,1.136,0.172
		c2.53,0.378,4.974,0.86,7.418,1.342c1.273,0.241,2.564,0.551,3.821,0.826c1.291,0.275,2.53,0.551,3.787,0.861
		c1.532,0.378,2.943,0.791,4.424,1.204c0.981,0.241,1.928,0.482,2.909,0.791c1.566,0.483,3.253,0.93,4.836,1.481
		c0.413,0.138,0.86,0.275,1.239,0.379c6.213,2.1,12.255,4.44,18.176,7.16c0,0,0,0,0.034,0
		c43.443,19.965,77.694,56.66,94.234,101.858c0,0,0,0,0.052,0c2.082,5.714,3.873,11.497,5.336,17.452l0,0
		c0.877,3.339,1.635,6.782,2.271,10.259c0.087,0.551,0.224,1.067,0.31,1.549c0.516,2.858,0.964,5.714,1.325,8.571
		c0.138,0.896,0.258,1.79,0.362,2.72c0.31,2.616,0.568,5.301,0.757,7.986c0.087,0.895,0.138,1.79,0.189,2.685
		c0.207,3.477,0.344,7.057,0.344,10.603c0,0.757,0,1.48-0.051,2.238c0,1.755-0.087,3.51-0.121,5.232
		c-0.138,2.306-0.275,4.647-0.448,6.953c-1.686,13.391-20.069,10.086-17.763-1.652c0.293-4.234,0.499-8.467,0.499-12.771
		c0-11.463-1.187-22.651-3.442-33.391c-1.359-6.368-3.012-12.496-5.06-18.52c-21.704-64.028-82.22-110.12-153.597-110.12
		C72.565,136.351,0,208.916,0,298.382c0,89.492,72.565,162.091,162.014,162.091h78.21h0.104h322.169h0.224h63.493
		c57.745,0,104.561-46.816,104.561-104.535C730.774,298.244,683.958,251.463,626.213,251.463z M232.496,568.803
		c3.167,0.826,6.282,0.413,9.174-1.239c2.926-1.721,4.768-4.097,5.594-7.366c0.895-3.099,0.534-6.23-1.17-9.123
		c-1.772-2.926-4.165-4.784-7.315-5.61c-3.219-0.896-6.282-0.517-9.174,1.204c-2.891,1.688-4.785,4.131-5.68,7.299
		c-0.465,1.789-0.516,3.58-0.241,5.301l-15.456,8.916v-18.038c1.549-0.517,2.977-1.411,4.303-2.754
		c2.358-2.273,3.528-5.164,3.528-8.503s-1.17-6.196-3.494-8.503c-2.375-2.409-5.181-3.546-8.623-3.546
		c-3.253,0-6.144,1.205-8.52,3.546c-2.272,2.307-3.494,5.164-3.494,8.503s1.222,6.23,3.494,8.503c1.395,1.343,2.84,2.305,4.51,2.856
		v17.832l-15.594-8.95c0.31-1.583,0.224-3.271-0.275-5.163c-0.809-3.168-2.667-5.611-5.594-7.299
		c-2.892-1.72-5.99-2.099-9.123-1.204c-3.201,0.826-5.646,2.684-7.366,5.61c-1.704,2.995-2.1,6.025-1.257,9.191
		c0.826,3.167,2.737,5.577,5.68,7.298c2.771,1.652,5.834,2.065,9.174,1.239c1.807-0.515,3.425-1.342,4.647-2.443l15.456,8.88
		l-15.542,9.02c-1.359-1.033-2.84-1.825-4.561-2.273c-3.132-0.896-6.317-0.481-9.174,1.171c-2.943,1.72-4.854,4.131-5.68,7.332
		c-0.843,3.097-0.395,6.264,1.257,9.156c1.652,2.892,4.079,4.751,7.366,5.646c3.133,0.86,6.231,0.413,9.123-1.239
		c2.926-1.652,4.784-4.061,5.594-7.298c0.5-1.755,0.585-3.51,0.275-5.301l15.422-8.882v18.004c-1.601,0.551-3.063,1.481-4.251,2.754
		c-2.323,2.341-3.493,5.198-3.493,8.503c0,3.407,1.136,6.196,3.493,8.571c2.376,2.341,5.181,3.512,8.434,3.512
		c3.305,0,6.196-1.171,8.623-3.512c2.358-2.375,3.494-5.164,3.494-8.571c0-3.305-1.17-6.162-3.494-8.503
		c-1.187-1.273-2.65-2.169-4.457-2.858v-17.865l15.576,9.018c-0.275,1.652-0.224,3.339,0.241,5.129
		c0.93,3.237,2.858,5.681,5.68,7.298c2.857,1.652,5.972,2.065,9.174,1.205c3.236-0.86,5.611-2.686,7.315-5.611
		c1.704-2.96,2.065-6.023,1.17-9.156c-0.826-3.236-2.667-5.645-5.594-7.332c-2.892-1.652-6.007-2.067-9.174-1.241
		c-1.842,0.586-3.373,1.377-4.665,2.478l-15.474-8.915l15.559-9.02C229.242,567.496,230.774,568.322,232.496,568.803z
		 M418.778,568.803c3.132,0.826,6.248,0.413,9.088-1.239c2.977-1.721,4.767-4.097,5.645-7.366c0.894-3.099,0.464-6.23-1.205-9.123
		c-1.738-2.926-4.165-4.784-7.332-5.61c-3.219-0.896-6.282-0.517-9.123,1.204c-2.89,1.688-4.784,4.131-5.679,7.299
		c-0.499,1.789-0.533,3.58-0.24,5.301l-15.457,8.916v-18.038c1.549-0.517,2.978-1.446,4.32-2.754c2.341-2.273,3.51-5.164,3.51-8.503
		s-1.17-6.196-3.51-8.503c-2.375-2.409-5.215-3.546-8.607-3.546c-3.321,0-6.161,1.205-8.519,3.546
		c-2.323,2.307-3.511,5.164-3.511,8.503s1.187,6.23,3.511,8.503c1.343,1.343,2.858,2.305,4.476,2.856v17.832l-15.559-8.95
		c0.275-1.583,0.19-3.271-0.309-5.163c-0.81-3.168-2.634-5.611-5.56-7.299c-2.943-1.72-6.007-2.099-9.157-1.204
		c-3.184,0.826-5.611,2.684-7.332,5.61c-1.756,2.995-2.117,6.025-1.257,9.191c0.809,3.167,2.72,5.577,5.663,7.298
		c2.754,1.652,5.817,2.065,9.139,1.239c1.824-0.515,3.408-1.342,4.682-2.443l15.404,8.88l-15.491,9.02
		c-1.342-1.033-2.857-1.825-4.595-2.273c-3.15-0.896-6.3-0.481-9.139,1.171c-2.943,1.72-4.854,4.131-5.663,7.332
		c-0.86,3.097-0.464,6.264,1.257,9.156c1.635,2.892,4.045,4.751,7.332,5.646c3.15,0.86,6.248,0.413,9.157-1.239
		c2.926-1.652,4.75-4.061,5.56-7.298c0.533-1.755,0.619-3.51,0.309-5.335l15.404-8.848v17.97c-1.584,0.585-3.029,1.515-4.234,2.788
		c-2.375,2.341-3.562,5.198-3.562,8.503c0,3.407,1.187,6.196,3.562,8.571c2.359,2.341,5.164,3.512,8.433,3.512
		c3.305,0,6.146-1.171,8.607-3.512c2.376-2.375,3.51-5.164,3.51-8.571c0-3.305-1.17-6.162-3.51-8.503
		c-1.204-1.273-2.65-2.169-4.458-2.858v-17.865l15.595,9.018c-0.293,1.722-0.259,3.339,0.24,5.129
		c0.896,3.237,2.823,5.681,5.679,7.298c2.841,1.652,5.974,2.065,9.123,1.205c3.253-0.86,5.68-2.686,7.332-5.611
		c1.669-2.96,2.1-6.023,1.205-9.156c-0.878-3.236-2.668-5.645-5.645-7.332c-2.84-1.652-5.956-2.067-9.122-1.241
		c-1.876,0.586-3.408,1.377-4.665,2.478l-15.508-8.915l15.593-9.02C415.473,567.496,416.97,568.322,418.778,568.803z
		 M604.974,568.803c3.185,0.826,6.248,0.413,9.14-1.239c2.943-1.721,4.767-4.097,5.611-7.366c0.894-3.099,0.499-6.23-1.189-9.123
		c-1.737-2.926-4.147-4.784-7.314-5.61c-3.235-0.896-6.3-0.517-9.157,1.204c-2.926,1.688-4.75,4.131-5.644,7.299
		c-0.518,1.789-0.586,3.58-0.259,5.301l-15.49,8.916v-18.038c1.583-0.517,3.029-1.411,4.319-2.754
		c2.359-2.273,3.546-5.164,3.546-8.503s-1.187-6.196-3.511-8.503c-2.393-2.409-5.198-3.546-8.607-3.546
		c-3.305,0-6.144,1.205-8.519,3.546c-2.341,2.307-3.512,5.164-3.512,8.503s1.171,6.23,3.512,8.503
		c1.341,1.343,2.857,2.305,4.44,2.856v17.832l-15.576-8.95c0.344-1.583,0.258-3.271-0.243-5.163
		c-0.826-3.168-2.65-5.611-5.592-7.299c-2.927-1.72-5.99-2.099-9.175-1.204c-3.115,0.826-5.628,2.684-7.332,5.61
		c-1.704,2.995-2.135,6.025-1.239,9.191c0.808,3.167,2.754,5.577,5.681,7.298c2.736,1.652,5.799,2.065,9.138,1.239
		c1.825-0.515,3.426-1.342,4.682-2.443l15.422,8.88l-15.49,9.02c-1.343-1.033-2.875-1.825-4.613-2.273
		c-3.149-0.896-6.334-0.481-9.138,1.171c-2.927,1.72-4.872,4.131-5.681,7.332c-0.844,3.097-0.413,6.264,1.239,9.156
		s4.079,4.751,7.332,5.646c3.185,0.86,6.282,0.413,9.175-1.239c2.89-1.652,4.766-4.061,5.56-7.298
		c0.567-1.755,0.653-3.51,0.275-5.301l15.454-8.882v18.004c-1.583,0.551-3.062,1.481-4.233,2.754
		c-2.376,2.341-3.562,5.198-3.562,8.503c0,3.407,1.186,6.196,3.562,8.571c2.323,2.341,5.129,3.512,8.433,3.512
		c3.271,0,6.162-1.171,8.607-3.512c2.375-2.375,3.511-5.164,3.511-8.571c0-3.305-1.187-6.162-3.511-8.503
		c-1.205-1.273-2.702-2.169-4.442-2.858v-17.865l15.577,9.018c-0.31,1.652-0.259,3.339,0.259,5.129
		c0.894,3.237,2.804,5.681,5.644,7.298c2.823,1.652,6.007,2.065,9.157,1.205c3.253-0.86,5.662-2.686,7.314-5.611
		c1.688-2.96,2.083-6.023,1.189-9.156c-0.844-3.236-2.668-5.645-5.611-7.332c-2.892-1.652-5.955-2.067-9.14-1.241
		c-1.876,0.586-3.391,1.377-4.647,2.478l-15.508-8.915l15.542-9.02C601.703,567.496,603.218,568.322,604.974,568.803z
		 M511.909,666.256c3.185,0.826,6.249,0.379,9.14-1.273c2.977-1.652,4.785-4.097,5.629-7.333c0.896-3.131,0.447-6.195-1.187-9.122
		c-1.79-2.96-4.166-4.784-7.332-5.61c-3.22-0.896-6.282-0.483-9.14,1.17c-2.926,1.756-4.769,4.131-5.715,7.332
		c-0.447,1.824-0.499,3.615-0.156,5.268l-15.542,8.984v-18.038c1.584-0.551,3.013-1.446,4.32-2.788
		c2.375-2.273,3.546-5.13,3.546-8.537c0-3.27-1.171-6.162-3.512-8.503c-2.409-2.376-5.215-3.546-8.589-3.546
		c-3.321,0-6.179,1.205-8.537,3.546c-2.357,2.341-3.511,5.232-3.511,8.503c0,3.407,1.153,6.264,3.511,8.537
		c1.343,1.341,2.875,2.305,4.493,2.856V665.5l-15.577-8.951c0.327-1.549,0.224-3.269-0.293-5.129
		c-0.86-3.167-2.633-5.576-5.576-7.332c-2.927-1.652-6.041-2.065-9.191-1.17c-3.133,0.791-5.611,2.719-7.314,5.61
		c-1.688,3.029-2.135,6.024-1.241,9.191c0.81,3.133,2.738,5.611,5.663,7.264c2.754,1.72,5.835,2.099,9.156,1.273
		c1.825-0.517,3.408-1.343,4.63-2.409l15.422,8.88l-15.472,8.984c-1.326-1.032-2.84-1.79-4.579-2.271
		c-3.149-0.896-6.35-0.517-9.156,1.17c-2.977,1.688-4.853,4.166-5.663,7.332c-0.894,3.065-0.447,6.232,1.241,9.123
		c1.652,2.926,4.061,4.75,7.314,5.714c3.201,0.792,6.264,0.413,9.191-1.273c2.943-1.686,4.716-4.097,5.576-7.332
		c0.551-1.686,0.62-3.478,0.293-5.266l15.404-8.848v17.936c-1.566,0.551-3.063,1.479-4.233,2.788
		c-2.359,2.305-3.512,5.163-3.512,8.503c0,3.407,1.153,6.195,3.512,8.571c2.357,2.341,5.163,3.546,8.45,3.546
		c3.253,0,6.18-1.205,8.589-3.546c2.375-2.376,3.512-5.164,3.512-8.571c0-3.34-1.171-6.198-3.512-8.503
		c-1.205-1.309-2.684-2.237-4.458-2.857v-17.831l15.611,8.984c-0.309,1.652-0.258,3.339,0.19,5.095
		c0.946,3.235,2.874,5.714,5.715,7.332c2.858,1.686,6.007,2.065,9.14,1.171c3.253-0.792,5.68-2.618,7.332-5.611
		c1.635-2.926,2.083-5.99,1.187-9.123c-0.844-3.269-2.652-5.644-5.629-7.332c-2.89-1.686-5.955-2.099-9.14-1.239
		c-1.858,0.551-3.389,1.343-4.646,2.478l-15.49-8.95l15.524-9.018C508.64,664.983,510.189,665.809,511.909,666.256z
		 M325.611,666.256c3.167,0.826,6.213,0.379,9.105-1.273c2.926-1.652,4.819-4.097,5.611-7.333c0.895-3.131,0.517-6.195-1.187-9.122
		c-1.738-2.96-4.165-4.784-7.367-5.61c-3.167-0.896-6.248-0.483-9.105,1.17c-2.909,1.756-4.733,4.131-5.68,7.332
		c-0.448,1.824-0.534,3.615-0.207,5.268l-15.491,8.949v-18.002c1.601-0.551,2.977-1.446,4.32-2.788
		c2.341-2.273,3.511-5.13,3.511-8.537c0-3.27-1.17-6.162-3.511-8.503c-2.358-2.376-5.181-3.546-8.589-3.546
		c-3.288,0-6.179,1.205-8.485,3.546c-2.376,2.341-3.563,5.232-3.563,8.503c0,3.407,1.239,6.264,3.563,8.537
		c1.325,1.341,2.805,2.305,4.44,2.856V665.5l-15.576-8.951c0.327-1.549,0.241-3.269-0.292-5.129
		c-0.809-3.167-2.633-5.576-5.577-7.332c-2.926-1.652-5.99-2.065-9.139-1.17c-3.15,0.791-5.628,2.719-7.35,5.61
		c-1.755,3.029-2.151,6.024-1.256,9.191c0.861,3.133,2.771,5.611,5.663,7.264c2.772,1.72,5.835,2.099,9.191,1.273
		c1.79-0.517,3.356-1.343,4.63-2.409l15.405,8.88l-15.439,8.984c-1.36-1.032-2.892-1.79-4.596-2.271
		c-3.185-0.896-6.334-0.517-9.191,1.17c-2.943,1.688-4.802,4.166-5.663,7.332c-0.843,3.065-0.465,6.232,1.256,9.123
		c1.687,2.926,4.062,4.75,7.35,5.714c3.184,0.792,6.248,0.413,9.139-1.273c2.943-1.686,4.768-4.097,5.577-7.332
		c0.534-1.686,0.62-3.478,0.292-5.266l15.456-8.848v17.9c-1.601,0.586-3.063,1.515-4.285,2.823
		c-2.324,2.305-3.511,5.163-3.511,8.503c0,3.407,1.153,6.195,3.511,8.571c2.358,2.341,5.215,3.546,8.451,3.546
		c3.288,0,6.179-1.205,8.589-3.546c2.358-2.376,3.511-5.164,3.511-8.571c0-3.34-1.17-6.198-3.511-8.503
		c-1.239-1.309-2.633-2.237-4.441-2.857v-17.831l15.611,8.984c-0.275,1.652-0.241,3.339,0.207,5.095
		c0.947,3.235,2.823,5.714,5.714,7.332c2.823,1.686,5.955,2.065,9.071,1.171c3.288-0.792,5.679-2.618,7.367-5.611
		c1.704-2.926,2.082-5.99,1.187-9.123c-0.792-3.269-2.685-5.644-5.611-7.332c-2.892-1.686-5.938-2.099-9.105-1.239
		c-1.945,0.551-3.442,1.343-4.699,2.478l-15.508-8.95l15.576-9.018C322.289,664.983,323.838,665.809,325.611,666.256z"/>
</g>
<g id="Layer_1">
</g>
</svg>
