<?xml version="1.0" encoding="iso-8859-1"?>
<!-- Generator: Adobe Illustrator 17.1.0, SVG Export Plug-In . SVG Version: 6.00 Build 0)  -->
<!DOCTYPE svg PUBLIC "-//W3C//DTD SVG 1.1//EN" "http://www.w3.org/Graphics/SVG/1.1/DTD/svg11.dtd">
<svg version="1.1" xmlns="http://www.w3.org/2000/svg" xmlns:xlink="http://www.w3.org/1999/xlink" x="0px" y="0px"
	 viewBox="0 0 835.127 499.139" style="enable-background:new 0 0 835.127 499.139;" xml:space="preserve">
<g id="storm">
	<path id="storm_1_" d="M715.025,105.818c-1.05,0-2.082,0-3.149,0.034C698.434,33.494,640.912,0,580.207,0
		c-80.034,0-165.697,58.107-163.512,162.134c-14.423,4.062-32.375,5.955-52.719,5.955C251.704,168.089,66.385,109.88,0,33.562
		c82.031,193.219,232.513,326.713,411.91,338.417c1.085,85.679,81.841,127.159,160.568,127.159
		c85.508,0,168.623-48.88,144.854-143.132c0.878,0,1.824,0,2.72,0C868.949,356.007,879.672,105.852,715.025,105.818z"/>
</g>
<g id="Layer_1">
</g>
</svg>
