<?xml version="1.0" encoding="iso-8859-1"?>
<!-- Generator: Adobe Illustrator 17.1.0, SVG Export Plug-In . SVG Version: 6.00 Build 0)  -->
<!DOCTYPE svg PUBLIC "-//W3C//DTD SVG 1.1//EN" "http://www.w3.org/Graphics/SVG/1.1/DTD/svg11.dtd">
<svg version="1.1" xmlns="http://www.w3.org/2000/svg" xmlns:xlink="http://www.w3.org/1999/xlink" x="0px" y="0px"
	 viewBox="0 0 705.139 701.386" style="enable-background:new 0 0 705.139 701.386;" xml:space="preserve">
<g id="sun">
	<path id="sun_1_" d="M578.597,356.577c-1.98,125.112-104.974,224.922-230.104,222.96
		c-125.095-1.962-224.888-104.957-222.926-230.069c1.962-125.077,104.957-224.888,230.05-222.926
		C480.731,128.504,580.559,231.499,578.597,356.577z M357.563,88.383l6.437,0.104c3.528,0.051,6.455-2.737,6.523-6.317l1.187-75.56
		c0.052-3.545-2.806-6.455-6.316-6.506l-6.437-0.104c-3.546-0.069-6.472,2.771-6.523,6.3l-1.187,75.559
		C351.178,85.44,354.017,88.332,357.563,88.383z M208.699,121.809c1.635,3.184,5.525,4.423,8.692,2.788l5.697-2.909
		c3.167-1.618,4.441-5.474,2.806-8.624l-34.406-67.332c-1.618-3.167-5.508-4.406-8.675-2.771l-5.748,2.875
		c-3.133,1.686-4.389,5.56-2.754,8.692L208.699,121.809z M106.48,230.466c3.046,1.876,7.005,0.964,8.881-1.979l3.425-5.473
		c1.877-3.012,1.016-7.005-2.031-8.864l-63.976-40.258c-2.978-1.859-6.988-0.93-8.882,2.014l-3.408,5.474
		c-1.876,2.995-0.981,7.005,2.014,8.898L106.48,230.466z M88.648,378.436l-0.551-6.437c-0.292-3.512-3.425-6.146-6.936-5.835
		l-75.318,6.454c-3.511,0.327-6.127,3.46-5.818,7.005l0.534,6.386c0.31,3.528,3.425,6.146,6.936,5.87l75.301-6.489
		C86.342,385.113,88.993,381.946,88.648,378.436z M156.204,528.039c-2.082-2.858-6.127-3.546-9.019-1.429l-61.274,44.182
		c-2.84,2.118-3.528,6.146-1.446,8.985l3.752,5.266c2.082,2.874,6.127,3.528,8.985,1.463l61.308-44.268
		c2.857-2.083,3.528-6.11,1.429-8.951L156.204,528.039z M307.288,614.098l-6.334-1.032c-3.511-0.654-6.85,1.737-7.418,5.215
		l-12.581,74.544c-0.585,3.493,1.738,6.815,5.249,7.435l6.368,1.032c3.477,0.603,6.816-1.755,7.401-5.215l12.582-74.562
		C313.158,617.987,310.765,614.682,307.288,614.098z M454.534,598.107l-5.971,2.324c-3.356,1.307-4.992,5.007-3.719,8.347
		l27.195,70.499c1.273,3.305,4.992,4.957,8.348,3.718l5.99-2.359c3.287-1.273,4.957-5.025,3.666-8.312l-27.177-70.483
		C461.574,598.522,457.856,596.869,454.534,598.107z M584.156,494.458c-2.875-2.064-6.902-1.41-9.003,1.48l-3.716,5.268
		c-2.049,2.84-1.377,6.919,1.497,8.949l61.515,43.96c2.908,2.03,6.901,1.325,8.966-1.515l3.735-5.268
		c2.082-2.89,1.377-6.901-1.481-9.001L584.156,494.458z M699.147,367.333l-75.404-4.853c-3.562-0.224-6.627,2.444-6.851,6.024
		l-0.413,6.404c-0.241,3.58,2.444,6.591,6.007,6.849l75.422,4.853c3.546,0.189,6.558-2.479,6.817-6.023l0.395-6.403
		C705.395,370.621,702.709,367.592,699.147,367.333z M602.71,250.81l70.481-27.383c3.288-1.274,4.941-4.992,3.667-8.296
		l-2.342-6.007c-1.307-3.339-5.007-4.974-8.33-3.649l-70.447,27.315c-3.321,1.307-4.941,5.025-3.666,8.313l2.341,6.024
		C595.687,250.432,599.423,252.067,602.71,250.81z M512.229,141.671c2.788,2.169,6.833,1.738,9.036-1.05l47.039-59.191
		c2.203-2.771,1.738-6.782-1.05-9.002l-5.009-3.993c-2.789-2.22-6.833-1.755-9.036,0.981l-47.039,59.191
		c-2.203,2.771-1.74,6.851,1.05,9.019L512.229,141.671z"/>
</g>
<g id="Layer_1">
</g>
</svg>
