<?xml version="1.0" encoding="iso-8859-1"?>
<!-- Generator: Adobe Illustrator 17.1.0, SVG Export Plug-In . SVG Version: 6.00 Build 0)  -->
<!DOCTYPE svg PUBLIC "-//W3C//DTD SVG 1.1//EN" "http://www.w3.org/Graphics/SVG/1.1/DTD/svg11.dtd">
<svg version="1.1" xmlns="http://www.w3.org/2000/svg" xmlns:xlink="http://www.w3.org/1999/xlink" x="0px" y="0px"
	 viewBox="0 0 881.247 386.218" style="enable-background:new 0 0 881.247 386.218;" xml:space="preserve">
<g id="sunset">
	<path id="sunset_1_" d="M384.625,85.96L372.818,8.645c-0.551-3.631,1.963-7.073,5.577-7.573l6.575-0.964
		c3.683-0.689,7.022,2.014,7.641,5.525l11.791,77.298c0.516,3.666-1.98,7.039-5.611,7.573l-6.592,0.964
		C388.567,92.105,385.194,89.609,384.625,85.96z M544.781,106.958l6.11,2.496c3.391,1.377,7.298-0.207,8.692-3.649l29.241-72.513
		c1.395-3.442-0.258-7.28-3.63-8.657l-6.18-2.564c-3.391-1.377-7.23,0.275-8.658,3.804l-29.311,72.427
		C539.634,101.795,541.32,105.581,544.781,106.958z M674.093,217.113c2.116,2.979,6.179,3.735,9.224,1.602l64.356-44.338
		c3.029-2.048,3.804-6.196,1.652-9.242l-3.735-5.508c-2.117-3.012-6.248-3.77-9.26-1.756l-64.321,44.509
		c-3.029,2.151-3.77,6.146-1.756,9.295L674.093,217.113z M871.63,362.948H675.246c0-0.481,0.068-1.084,0.068-1.498
		c0-129.517-104.958-234.526-234.389-234.526c-129.483,0-234.389,105.01-234.389,234.526c0,0.414,0.069,1.017,0.069,1.498H9.617
		c-12.823,0-12.823,23.27,0,23.27H871.63C884.453,386.218,884.453,362.948,871.63,362.948z M231.768,178.525
		c2.909,2.099,7.109,1.652,9.312-1.394l4.01-5.301c2.151-3.029,1.549-7.143-1.377-9.294l-62.668-46.747
		c-2.978-2.289-7.143-1.652-9.295,1.239l-4.027,5.37c-2.169,2.892-1.601,7.091,1.36,9.363L231.768,178.525z"/>
</g>
<g id="Layer_1">
</g>
</svg>
