<?xml version="1.0" encoding="iso-8859-1"?>
<!-- Generator: Adobe Illustrator 17.1.0, SVG Export Plug-In . SVG Version: 6.00 Build 0)  -->
<!DOCTYPE svg PUBLIC "-//W3C//DTD SVG 1.1//EN" "http://www.w3.org/Graphics/SVG/1.1/DTD/svg11.dtd">
<svg version="1.1" xmlns="http://www.w3.org/2000/svg" xmlns:xlink="http://www.w3.org/1999/xlink" x="0px" y="0px"
	 viewBox="0 0 321.033 939.519" style="enable-background:new 0 0 321.033 939.519;" xml:space="preserve">
<g id="thermometer-2">
	<path id="thermometer-2_1_" d="M249.88,645.577V88.606C249.88,39.725,208.951,0,158.658,0C108.4,0,67.47,39.725,67.47,88.606
		v559.553C25.543,678.073,0,727.022,0,778.968c0,88.467,72.014,160.551,160.517,160.551c88.467,0,160.517-72.083,160.517-160.551
		C321.033,725.128,294.079,675.215,249.88,645.577z M160.517,915.696c-75.525,0-136.73-61.204-136.73-136.728
		c0-50.26,27.092-94.148,67.47-117.901V88.606c0-35.87,30.121-64.854,67.401-64.854c37.212,0,67.435,28.984,67.435,64.854v570.327
		c42.41,23.235,71.12,68.262,71.12,120.035C297.212,854.492,236.007,915.696,160.517,915.696z M148.468,130.362H97.178v-20.241
		h51.291V130.362z M146.816,313.081H97.97v-20.207h48.846V313.081z M128.468,190.981H95.284v-20.206h33.184V190.981z
		 M128.468,253.253H95.25v-20.172h33.218V253.253z M96.936,359.38h33.15v20.207h-33.15V359.38z M246.713,778.244
		c0,48.606-39.38,88.056-88.055,88.056c-48.641,0-88.055-39.45-88.055-88.056c0-36.317,21.927-67.436,53.253-80.894V420.035
		c0-17.9,18.554-18.555,38.003-18.555c19.483,0,32.53,0.654,32.53,18.555v277.796C225.198,711.532,246.713,742.341,246.713,778.244z
		"/>
</g>
<g id="Layer_1">
</g>
</svg>
