<?xml version="1.0" encoding="iso-8859-1"?>
<!-- Generator: Adobe Illustrator 17.1.0, SVG Export Plug-In . SVG Version: 6.00 Build 0)  -->
<!DOCTYPE svg PUBLIC "-//W3C//DTD SVG 1.1//EN" "http://www.w3.org/Graphics/SVG/1.1/DTD/svg11.dtd">
<svg version="1.1" xmlns="http://www.w3.org/2000/svg" xmlns:xlink="http://www.w3.org/1999/xlink" x="0px" y="0px"
	 viewBox="0 0 321.016 939.519" style="enable-background:new 0 0 321.016 939.519;" xml:space="preserve">
<g id="thermometer">
	<path id="thermometer_1_" d="M249.88,645.577V88.606C249.88,39.725,208.951,0,158.693,0C108.383,0,67.47,39.725,67.47,88.606
		v559.553C25.543,678.073,0,727.022,0,778.968c0,88.467,71.997,160.551,160.517,160.551c88.503,0,160.499-72.083,160.499-160.551
		C321.016,725.128,294.096,675.215,249.88,645.577z M160.517,915.696c-75.508,0-136.713-61.204-136.713-136.728
		c0-50.26,27.075-94.148,67.453-117.901V88.606c0-35.87,30.138-64.854,67.436-64.854c37.177,0,67.382,28.984,67.382,64.854v570.327
		c42.427,23.235,71.171,68.262,71.171,120.035C297.246,854.492,236.024,915.696,160.517,915.696z M146.61,130.362H95.267v-20.241
		h51.343V130.362z M144.131,319.208H95.267v-20.206h48.864V319.208z M128.434,193.288H95.267v-20.241h33.167V193.288z
		 M128.468,256.248H95.267v-20.171h33.201V256.248z M128.434,382.169H95.267v-20.173h33.167V382.169z M146.61,445.198H95.267
		v-20.276h51.343V445.198z M128.434,508.123H95.267v-20.205h33.167V508.123z M246.713,778.244c0,48.606-39.397,88.056-88.02,88.056
		c-48.675,0-88.09-39.45-88.09-88.056c0-36.317,21.927-67.436,53.287-80.894V558.794c0-17.934,18.52-18.519,37.952-18.519
		c19.501,0,32.564,0.585,32.564,18.519v139.037C225.181,711.532,246.713,742.341,246.713,778.244z"/>
</g>
<g id="Layer_1">
</g>
</svg>
