<?xml version="1.0" encoding="iso-8859-1"?>
<!-- Generator: Adobe Illustrator 17.1.0, SVG Export Plug-In . SVG Version: 6.00 Build 0)  -->
<!DOCTYPE svg PUBLIC "-//W3C//DTD SVG 1.1//EN" "http://www.w3.org/Graphics/SVG/1.1/DTD/svg11.dtd">
<svg version="1.1" xmlns="http://www.w3.org/2000/svg" xmlns:xlink="http://www.w3.org/1999/xlink" x="0px" y="0px"
	 viewBox="0 0 730.741 828.433" style="enable-background:new 0 0 730.741 828.433;" xml:space="preserve">
<g id="thunderstorm">
	<path id="thunderstorm_1_" d="M263.305,644.44h118.279L234.079,828.433l89.088-150.361l-106.575-1.515l58.417-154.732l78.864,2.89
		L263.305,644.44z M521.514,523.717l-52.186-1.892l-38.726,102.512l70.637,0.964l-59.037,99.586l97.728-121.789h-78.348
		L521.514,523.717z M626.23,251.462c-31.496,0-59.724,13.941-78.863,35.972c-4.338,4.992-8.228,10.397-11.566,16.145
		c-4.751,8.159-8.365,17.109-10.774,26.54c-3.615,13.013-19.863,8.985-18.004-1.755c3.476-15.181,9.844-29.294,18.451-41.756
		c0-0.068,0-0.068-0.035-0.068c3.478-4.992,7.333-9.776,11.464-14.182c0,0,0.068,0,0.068,0.034
		c15.353-16.42,35.078-28.606,57.418-34.595c0.035-0.035,0.035-0.035,0.104-0.035c1.859-0.551,3.752-0.999,5.715-1.377
		c0.136-0.035,0.309-0.103,0.515-0.172c1.79-0.344,3.546-0.654,5.336-0.964c0.344-0.103,0.619-0.138,0.93-0.206
		c1.756-0.241,3.476-0.483,5.197-0.654c0.379-0.069,0.792-0.138,1.171-0.138c1.756-0.206,3.546-0.309,5.336-0.447
		c0.344,0,0.688-0.035,1.067-0.035c2.134-0.172,4.302-0.241,6.47-0.241c-1.549,0-3.063,0.103-4.612,0.138
		c0-1.136,0.07-2.307,0.07-3.442C621.687,103.098,518.623,0,391.464,0c-87.401,0-163.478,48.709-202.41,120.482
		c0.378,0.068,0.723,0.103,1.101,0.138c2.513,0.378,4.992,0.86,7.401,1.377c1.343,0.206,2.548,0.516,3.89,0.791
		c1.239,0.31,2.513,0.62,3.753,0.895c1.48,0.379,2.96,0.757,4.44,1.17c0.964,0.241,1.894,0.551,2.823,0.791
		c1.652,0.517,3.305,0.964,4.922,1.481c0.379,0.172,0.826,0.31,1.205,0.447c6.23,2.031,12.255,4.406,18.176,7.092l0.034,0.034
		c43.477,19.931,77.694,56.696,94.286,101.859c0,0,0,0,0.034-0.035c2.031,5.714,3.856,11.497,5.37,17.452c0,0,0,0-0.068,0
		c0.894,3.408,1.618,6.782,2.341,10.293c0.068,0.517,0.138,0.998,0.241,1.515c0.551,2.858,0.929,5.714,1.377,8.606
		c0.103,0.895,0.207,1.79,0.344,2.685c0.31,2.616,0.551,5.37,0.723,8.02c0.07,0.896,0.172,1.79,0.241,2.686
		c0.206,3.51,0.309,7.056,0.309,10.602c0,0.723-0.034,1.445-0.068,2.203c0,1.755-0.035,3.511-0.104,5.232
		c-0.104,2.341-0.31,4.647-0.447,6.953c-1.687,13.426-20.069,10.086-17.797-1.652c0.344-4.234,0.551-8.399,0.551-12.736
		c0-11.429-1.204-22.651-3.477-33.426c-1.308-6.3-3.029-12.496-5.06-18.52c-21.687-63.993-82.203-110.12-153.528-110.12
		C72.53,136.317,0,208.881,0,298.382s72.53,162.065,162.065,162.065h78.141h0.104h322.203h0.241h63.475
		c57.729,0,104.511-46.782,104.511-104.509C730.741,298.21,683.959,251.462,626.23,251.462z"/>
</g>
<g id="Layer_1">
</g>
</svg>
