<?xml version="1.0" encoding="iso-8859-1"?>
<!-- Generator: Adobe Illustrator 17.1.0, SVG Export Plug-In . SVG Version: 6.00 Build 0)  -->
<!DOCTYPE svg PUBLIC "-//W3C//DTD SVG 1.1//EN" "http://www.w3.org/Graphics/SVG/1.1/DTD/svg11.dtd">
<svg version="1.1" xmlns="http://www.w3.org/2000/svg" xmlns:xlink="http://www.w3.org/1999/xlink" x="0px" y="0px"
	 viewBox="0 0 521.98 572.633" style="enable-background:new 0 0 521.98 572.633;" xml:space="preserve">
<g id="tornado">
	<path id="tornado_1_" d="M484.647,286.334c0,6.472-5.284,11.773-11.773,11.773H174.355c-6.506,0-11.756-5.302-11.756-11.773
		c0-6.506,5.249-11.773,11.756-11.773h298.519C479.363,274.561,484.647,279.828,484.647,286.334z M340.74,377.866
		c0-6.506-5.301-11.773-11.79-11.773H113.047c-6.506,0-11.756,5.268-11.756,11.773c0,6.472,5.25,11.738,11.756,11.738H328.95
		C335.439,389.604,340.74,384.337,340.74,377.866z M339.604,457.59H184.991c-6.489,0-11.738,5.267-11.738,11.772
		c0,6.472,5.249,11.773,11.738,11.773h154.613c6.506,0,11.772-5.302,11.772-11.773C351.376,462.857,346.11,457.59,339.604,457.59z
		 M460.653,103.305c0-6.506-5.265-11.774-11.772-11.774H11.773C5.25,91.531,0,96.799,0,103.305c0,6.506,5.25,11.738,11.773,11.738
		h437.108C455.388,115.043,460.653,109.811,460.653,103.305z M510.19,183.064H62.393c-6.489,0-11.756,5.266-11.756,11.738
		c0,6.506,5.266,11.808,11.756,11.808H510.19c6.488,0,11.79-5.301,11.79-11.808C521.98,188.33,516.678,183.064,510.19,183.064z
		 M22.427,23.58h485.077c6.523,0,11.79-5.302,11.79-11.773c0-6.506-5.267-11.807-11.79-11.807H22.427
		c-6.506,0-11.773,5.301-11.773,11.807C10.654,18.278,15.921,23.58,22.427,23.58z M272.978,549.121h-82.651
		c-6.506,0-11.756,5.268-11.756,11.739c0,6.506,5.249,11.772,11.756,11.772h82.651c6.488,0,11.754-5.266,11.754-11.772
		C284.733,554.389,279.466,549.121,272.978,549.121z"/>
</g>
<g id="Layer_1">
</g>
</svg>
