<?xml version="1.0" encoding="iso-8859-1"?>
<!-- Generator: Adobe Illustrator 17.1.0, SVG Export Plug-In . SVG Version: 6.00 Build 0)  -->
<!DOCTYPE svg PUBLIC "-//W3C//DTD SVG 1.1//EN" "http://www.w3.org/Graphics/SVG/1.1/DTD/svg11.dtd">
<svg version="1.1" xmlns="http://www.w3.org/2000/svg" xmlns:xlink="http://www.w3.org/1999/xlink" x="0px" y="0px"
	 viewBox="0 0 793.385 711.514" style="enable-background:new 0 0 793.385 711.514;" xml:space="preserve">
<g id="umbrella">
	<path id="umbrella_1_" d="M608.132,73.219c-3.185-1.894-6.731-4.027-10.482-6.196l2.357-3.339
		c7.746-10.568,22.669-12.909,33.27-5.129c10.604,7.746,12.91,22.617,5.164,33.219l-1.756,2.479
		c-7.108-7.401-12.771-11.326-14.336-12.392C621.023,80.896,616.238,77.487,608.132,73.219z M290.025,526.024h-0.051
		c0,0-61.962,90.706-73.098,106.886c-14.011,20.654-40.964,39.793-68.657,19.69c-27.745-20.069-24.923-44.922-17.04-57.729
		c7.866-12.77,18.244-20.894,31.584-26.196l-14.424-21.548c0,0-26.54,10.155-40.602,38.554
		c-14.028,28.433-5.18,66.299,23.098,85.611c28.262,19.277,74.458,19.792,100-17.66c25.559-37.383,78.21-114.389,78.21-114.389
		l-0.258-0.24l132.822-196.076c-6.075-4.889-12.082-9.673-18.088-14.079L290.025,526.024z M585.327,430.879
		c1.824-3.753,3.7-7.643,5.662-11.705c0.034,0,0.034-0.068,0.034-0.102c1.963-3.993,3.925-8.159,5.921-12.427
		c0.293-0.551,0.517-0.999,0.758-1.55c1.978-4.233,3.958-8.537,6.007-12.943c0.293-0.689,0.653-1.411,0.928-2.099
		c2.135-4.544,4.183-9.191,6.283-13.873c0.018-0.068,0.068-0.102,0.068-0.102c2.031-4.682,4.08-9.399,6.144-14.148
		c0.311-0.723,0.638-1.377,0.913-2.169c1.996-4.613,3.958-9.294,5.92-14.045c0.327-0.792,0.654-1.618,0.982-2.41
		c1.996-4.854,3.941-9.741,5.869-14.63v-0.034c1.859-4.819,3.666-9.57,5.406-14.32c0.292-0.826,0.635-1.686,0.928-2.513
		c1.635-4.579,3.254-9.122,4.767-13.632c0.275-0.826,0.551-1.618,0.844-2.479c1.549-4.682,3.047-9.26,4.389-13.735
		c0-0.034,0-0.034,0.018-0.104c1.291-4.44,2.53-8.743,3.632-13.011c0.206-0.758,0.43-1.515,0.603-2.341
		c1.016-4.097,1.962-7.986,2.736-11.911c0.155-0.723,0.275-1.411,0.431-2.134c0.791-3.959,1.445-7.78,1.91-11.429
		c4.2-32.633,3.77-60.792-1.291-79.312c-0.843-3.167-1.79-6.231-2.806-9.123c-0.258-0.757-0.515-1.446-0.808-2.168
		c-0.774-2.203-1.583-4.269-2.409-6.334c-0.275-0.62-0.569-1.309-0.862-1.997c-0.86-1.996-1.756-3.993-2.667-5.851
		c-0.275-0.483-0.483-0.999-0.742-1.447c-1.014-1.962-2.03-3.924-3.063-5.817c-0.172-0.241-0.344-0.585-0.533-0.86
		c-1.137-2.031-2.323-3.89-3.476-5.68c-0.052-0.069-0.121-0.207-0.207-0.344c-3.82-5.817-7.675-10.568-11.084-14.286
		c-7.505-8.262-13.27-11.91-13.374-12.048l-0.774-0.517c-0.12-0.069-10.241-7.745-29.914-15.146
		c-0.499-0.206-0.998-0.344-1.498-0.551c-1.307-0.447-2.668-0.93-4.027-1.377c-0.808-0.309-1.652-0.585-2.513-0.86
		c-1.221-0.379-2.496-0.826-3.787-1.205c-1.136-0.275-2.289-0.689-3.46-0.998c-1.17-0.31-2.339-0.654-3.562-0.999
		c-1.479-0.344-3.047-0.757-4.63-1.136c-1.016-0.206-2.014-0.481-3.047-0.723c-2.702-0.62-5.456-1.205-8.33-1.721
		c-4.474-0.791-9.277-1.239-14.252-1.239c-33.717,0-70.481,18.451-94.818,30.706c-4.252,2.065-8.09,4.028-11.395,5.611
		c-1.119,0.551-2.514,1.309-4.045,2.273c-0.173,0.103-0.345,0.172-0.465,0.275c-1.532,0.964-3.305,2.134-5.232,3.442
		c-0.311,0.206-0.603,0.413-0.878,0.654c-1.962,1.308-4.114,2.892-6.386,4.544c-0.31,0.241-0.706,0.448-1.066,0.757
		c-2.358,1.756-4.855,3.58-7.505,5.611c-0.361,0.275-0.689,0.551-1.016,0.826c-2.788,2.065-5.731,4.337-8.778,6.712
		c-0.12,0.138-0.241,0.172-0.378,0.31c-3.236,2.547-6.592,5.129-10.086,7.883c-0.034,0.069-0.034,0.069-0.034,0.069
		c-3.408,2.719-6.902,5.473-10.482,8.33c-0.327,0.31-0.671,0.551-0.964,0.757c-3.494,2.823-7.022,5.68-10.602,8.606
		c-0.413,0.344-0.809,0.688-1.205,0.964c-3.545,2.892-7.177,5.887-10.826,8.846c-0.413,0.345-0.809,0.689-1.239,1.033
		c-3.649,2.995-7.315,6.059-11.032,9.053c-0.327,0.31-0.672,0.551-1.033,0.861c-3.787,3.132-7.539,6.264-11.308,9.397
		c-0.104,0.034-0.241,0.172-0.345,0.275c-3.683,3.098-7.366,6.162-10.946,9.191c-0.327,0.241-0.637,0.447-0.964,0.757
		c-3.512,2.926-6.954,5.783-10.362,8.641c-0.465,0.413-0.981,0.792-1.446,1.239c-3.271,2.754-6.558,5.474-9.673,8.158
		c-0.431,0.345-0.896,0.758-1.309,1.101c-3.235,2.72-6.334,5.302-9.311,7.883c-0.275,0.172-0.516,0.413-0.774,0.62
		c-3.012,2.513-5.887,4.991-8.589,7.332c-0.12,0.035-0.189,0.104-0.275,0.207c29.122,8.296,93.976,30.843,164.251,82.822
		c5.99,4.441,12.083,9.123,18.124,14.011c40.757,32.771,82.496,75.697,119.416,131.567c0.052-0.07,0.086-0.139,0.12-0.173
		c2.393-4.648,5.284-10.465,8.658-17.108c0.12-0.275,0.258-0.517,0.412-0.826c1.584-3.271,3.305-6.677,5.112-10.293
		C584.861,431.807,585.12,431.29,585.327,430.879z M255.171,221.756c20.12-17.178,63.993-54.321,101.98-84.923
		c0.138-0.138,0.309-0.206,0.464-0.344c2.134-1.687,4.217-3.442,6.3-5.095c0.224-0.172,0.482-0.344,0.688-0.516
		c1.997-1.618,3.958-3.167,5.904-4.716c0.258-0.173,0.568-0.448,0.843-0.654c1.945-1.515,3.889-3.064,5.817-4.579
		c0.19-0.138,0.362-0.31,0.551-0.448c6.283-4.922,12.204-9.431,17.556-13.39c0.344-0.309,0.723-0.585,1.067-0.826
		c1.359-0.964,2.598-1.928,3.873-2.891c0.533-0.31,1.014-0.723,1.531-1.033c1.068-0.826,2.117-1.549,3.099-2.238
		c0.515-0.413,1.032-0.723,1.583-1.102c0.896-0.619,1.808-1.273,2.684-1.858c0.5-0.345,0.947-0.654,1.48-0.999
		c0.81-0.585,1.601-1.067,2.342-1.549c0.429-0.275,0.842-0.551,1.273-0.826c0.791-0.447,1.531-0.894,2.219-1.308
		c0.293-0.207,0.603-0.379,0.93-0.551c0.93-0.517,1.824-1.033,2.599-1.377c3.27-1.584,6.972-3.442,11.103-5.508
		c2.806-1.377,5.835-2.926,8.984-4.441c0.515-0.241,0.998-0.516,1.565-0.757c2.979-1.515,6.128-2.995,9.363-4.51
		c0.793-0.378,1.481-0.689,2.273-1.067c3.219-1.446,6.489-2.926,9.88-4.371c0.842-0.345,1.669-0.792,2.564-1.068
		c3.426-1.515,6.937-2.892,10.551-4.234c0.81-0.275,1.6-0.585,2.427-0.929c3.752-1.342,7.573-2.581,11.411-3.787
		c0.654-0.207,1.309-0.413,1.963-0.62c4.079-1.17,8.194-2.272,12.306-3.167c0.481-0.069,0.946-0.207,1.395-0.31
		c4.319-0.929,8.622-1.652,12.925-2.203c0.395-0.034,0.722-0.068,1.101-0.138c4.32-0.447,8.657-0.757,12.994-0.757
		c0.706-0.035,1.447,0,2.153,0c1.102,0.034,2.237,0,3.339,0.103c-22.272-11.91-46.058-23.683-67.16-32.083
		C437.133,7.16,396.204,0,352.624,0c-23.201,0-46.231,1.997-68.571,5.887c-57.384,10.086-136.007,57.625-167.986,78.141
		c16.024,6.506,42.1,20,74.991,47.47C230.989,164.992,248.373,202.444,255.171,221.756z M792.744,374.079
		c-4.474-36.007-10.619-85.232-50.086-143.064c-18.02-26.403-47.521-57.694-74.578-84.131c0.087,0.172,0.087,0.275,0.121,0.413
		c1.119,3.236,2.134,6.54,3.115,10.086c7.16,26.334,4.905,61.171,1.738,85.783c-0.293,2.375-0.672,4.785-1.102,7.264
		c-0.154,0.86-0.345,1.652-0.465,2.513c-0.327,1.652-0.619,3.339-0.982,5.061c-0.188,0.964-0.43,2.031-0.619,3.063
		c-0.395,1.618-0.74,3.237-1.153,4.889c-0.275,1.067-0.499,2.168-0.774,3.27c-0.431,1.618-0.86,3.236-1.291,4.992
		c-0.309,1.067-0.585,2.134-0.896,3.27c-0.499,1.79-1.014,3.615-1.549,5.543c-0.275,0.964-0.567,1.962-0.86,2.926
		c-0.722,2.547-1.566,5.129-2.375,7.78c-0.104,0.31-0.224,0.689-0.309,0.999c-0.896,2.822-1.86,5.646-2.806,8.571
		c-0.345,0.998-0.722,1.997-1.033,3.029c-0.671,1.962-1.325,3.855-2.083,5.887c-0.378,1.17-0.826,2.375-1.273,3.545
		c-0.637,1.825-1.29,3.718-1.996,5.577c-0.447,1.17-0.878,2.341-1.325,3.58c-0.723,1.859-1.429,3.787-2.117,5.646
		c-0.517,1.205-0.912,2.307-1.343,3.511c-0.791,2.031-1.617,4.062-2.443,6.196c-0.379,0.895-0.724,1.893-1.153,2.823
		c-2.427,6.127-4.941,12.255-7.487,18.244c-0.293,0.758-0.638,1.55-0.982,2.307c-0.93,2.238-1.876,4.51-2.857,6.713
		c-0.395,0.93-0.843,1.928-1.273,2.892c-0.86,2.099-1.738,4.061-2.634,6.092c-0.429,0.93-0.878,1.894-1.273,2.892
		c-0.912,2.031-1.824,4.097-2.77,6.128c-0.345,0.86-0.724,1.686-1.102,2.547c-1.05,2.273-2.083,4.51-3.117,6.781
		c-0.206,0.551-0.499,1.137-0.757,1.652c-2.6,5.749-5.198,11.326-7.745,16.627c-0.121,0.311-0.259,0.551-0.363,0.758
		c-1.118,2.443-2.255,4.716-3.339,7.022c-0.258,0.517-0.481,1.032-0.723,1.549c-0.98,2.031-1.997,4.061-2.943,6.024
		c-0.207,0.515-0.465,0.93-0.671,1.411c-0.998,2.031-1.963,4.027-2.943,6.025c-0.173,0.344-0.293,0.619-0.449,0.964
		c-1.102,2.203-2.134,4.337-3.183,6.334c-0.018,0.068-0.018,0.138-0.07,0.206c-3.253,6.506-6.179,12.289-8.691,17.178
		c-0.155,0.309-0.275,0.551-0.431,0.826c-0.653,1.309-1.291,2.547-1.894,3.684c-0.172,0.344-0.344,0.654-0.515,0.998
		c-0.207,0.413-0.465,0.93-0.671,1.343c19.449,2.788,58.76,10.636,99.792,32.22c37.59,19.69,62.427,43.098,75.37,57.211
		C770.335,520.619,797.926,415.972,792.744,374.079z M4.706,359.174c-7.607,11.67-5.783,26.265,3.959,32.633
		c9.81,6.3,23.872,2.03,31.445-9.673c7.608-11.67,0.087-38.865,0.087-38.865S12.245,347.47,4.706,359.174z M370.679,677.005
		c-6.764,12.255-3.907,26.678,6.3,32.22c10.258,5.714,23.959,0.345,30.654-11.842c6.712-12.187-2.736-38.83-2.736-38.83
		S377.357,664.819,370.679,677.005z M155.533,277.074c-9.191,14.182-7.039,32.014,4.888,39.759
		c11.91,7.746,29.105,2.513,38.331-11.772c9.243-14.217,0.086-47.436,0.086-47.436S164.81,262.823,155.533,277.074z
		 M515.085,617.797c-8.176,14.871-4.716,32.462,7.779,39.311c12.444,6.851,29.191,0.414,37.333-14.492
		c8.192-14.905-3.356-47.297-3.356-47.297S523.261,602.926,515.085,617.797z"/>
</g>
<g id="Layer_1">
</g>
</svg>
