<?xml version="1.0" encoding="iso-8859-1"?>
<!-- Generator: Adobe Illustrator 17.1.0, SVG Export Plug-In . SVG Version: 6.00 Build 0)  -->
<!DOCTYPE svg PUBLIC "-//W3C//DTD SVG 1.1//EN" "http://www.w3.org/Graphics/SVG/1.1/DTD/svg11.dtd">
<svg version="1.1" xmlns="http://www.w3.org/2000/svg" xmlns:xlink="http://www.w3.org/1999/xlink" x="0px" y="0px"
	 viewBox="0 0 733.509 730.721" style="enable-background:new 0 0 733.509 730.721;" xml:space="preserve">
<g id="uv-sun">
	<path id="uv-sun_1_" d="M176.048,59.794c-1.721-3.305-0.482-7.333,2.754-9.088l5.921-3.133c3.271-1.756,7.298-0.482,9.054,2.754
		l36.936,69.432c1.686,3.27,0.447,7.332-2.823,9.02l-5.921,3.167c-3.202,1.72-7.263,0.551-9.019-2.789L176.048,59.794z
		 M367.27,91.979h6.677c3.684,0,6.679-2.961,6.679-6.678V6.678c0-3.649-2.995-6.678-6.679-6.678h-6.677
		c-3.684,0-6.713,3.029-6.713,6.678v78.623C360.557,89.019,363.587,91.979,367.27,91.979z M108.406,243.855
		c3.132,1.928,7.263,0.895,9.156-2.203l3.512-5.748c1.893-3.167,0.894-7.264-2.273-9.191l-67.229-40.792
		c-3.133-1.894-7.264-0.896-9.225,2.271l-3.442,5.68c-1.894,3.202-0.895,7.333,2.272,9.225L108.406,243.855z M92.227,398.107
		l-0.654-6.643c-0.378-3.65-3.649-6.369-7.298-5.99l-78.245,7.986c-3.683,0.344-6.402,3.614-5.989,7.332l0.723,6.679
		c0.309,3.648,3.614,6.3,7.264,5.921l78.244-7.918C89.921,405.026,92.64,401.755,92.227,398.107z M529.025,144.854
		c2.927,2.272,7.126,1.721,9.363-1.204l47.953-62.341c2.271-2.926,1.72-7.126-1.205-9.397l-5.3-4.097
		c-2.927-2.203-7.16-1.686-9.363,1.239l-47.987,62.341c-2.237,2.96-1.686,7.091,1.273,9.363L529.025,144.854z M624.929,256.936
		l72.84-29.673c3.442-1.377,5.095-5.266,3.684-8.675l-2.514-6.196c-1.377-3.408-5.301-5.095-8.709-3.649l-72.874,29.569
		c-3.408,1.343-5.061,5.267-3.648,8.71l2.513,6.196C617.597,256.626,621.521,258.278,624.929,256.936z M601.521,367.332
		c0,130.19-105.507,235.697-235.662,235.697S130.162,497.522,130.162,367.332c0-130.154,105.542-235.697,235.697-235.697
		S601.521,237.177,601.521,367.332z M352.433,298.417h-29.708v75.698c0,23.442-8.571,34.354-24.234,34.354
		c-15.077,0-23.821-11.566-23.821-34.354v-75.698h-29.742v73.529c0,41.755,19.347,60.378,52.599,60.378
		c34.389,0,54.906-19.379,54.906-60V298.417z M488.578,298.417h-31.669l-16.834,56.282c-4.474,15.077-8.605,30.671-11.91,46.506
		h-0.585c-3.133-16.386-7.23-31.221-11.704-47.056l-16.042-55.731h-32.633l42.204,131.737h34.801L488.578,298.417z M727.132,376.557
		l-78.553-3.786c-3.65-0.207-6.781,2.65-6.988,6.3l-0.31,6.746c-0.173,3.684,2.65,6.851,6.334,6.954l78.554,3.89
		c3.684,0.138,6.782-2.684,6.988-6.402l0.345-6.679C733.673,379.897,730.85,376.798,727.132,376.557z M609.611,510.671
		c-3.063-2.065-7.23-1.273-9.295,1.756l-3.821,5.474c-2.099,3.063-1.342,7.228,1.688,9.329l64.716,44.681
		c3.029,2.065,7.194,1.343,9.294-1.72l3.821-5.508c2.099-3.065,1.309-7.195-1.686-9.295L609.611,510.671z M476.461,620.654
		l-6.196,2.547c-3.442,1.343-5.095,5.232-3.718,8.744l29.466,72.874c1.377,3.408,5.301,5.061,8.675,3.684l6.23-2.547
		c3.408-1.343,5.095-5.232,3.684-8.676l-29.432-72.874C483.759,620.963,479.904,619.311,476.461,620.654z M164.964,552.667
		c-2.238-2.96-6.437-3.614-9.398-1.411l-62.994,47.023c-2.995,2.203-3.58,6.436-1.377,9.397l3.993,5.37
		c2.237,2.926,6.402,3.511,9.363,1.342l63.064-46.988c2.926-2.237,3.545-6.437,1.308-9.363L164.964,552.667z M323.552,639.69
		l-6.609-0.998c-3.683-0.585-7.091,1.928-7.641,5.577l-11.876,77.727c-0.551,3.648,1.928,7.057,5.611,7.607l6.609,1.033
		c3.65,0.585,7.057-1.963,7.608-5.577l11.876-77.761C329.68,643.683,327.202,640.24,323.552,639.69z"/>
</g>
<g id="Layer_1">
</g>
</svg>
