<?xml version="1.0" encoding="iso-8859-1"?>
<!-- Generator: Adobe Illustrator 17.1.0, SVG Export Plug-In . SVG Version: 6.00 Build 0)  -->
<!DOCTYPE svg PUBLIC "-//W3C//DTD SVG 1.1//EN" "http://www.w3.org/Graphics/SVG/1.1/DTD/svg11.dtd">
<svg version="1.1" xmlns="http://www.w3.org/2000/svg" xmlns:xlink="http://www.w3.org/1999/xlink" x="0px" y="0px"
	 viewBox="0 0 1010 1010" style="enable-background:new 0 0 1010 1010;" xml:space="preserve">
<g id="weather-app">
	<g id="weather-app_1_">
		<linearGradient id="label_1_" gradientUnits="userSpaceOnUse" x1="505" y1="1010" x2="505" y2="-1.318949e-08">
			<stop  offset="0" style="stop-color:#2DCCD4"/>
			<stop  offset="1" style="stop-color:#438BF0"/>
		</linearGradient>
		<path id="label_11_" style="fill:url(#label_1_);" d="M798.79,1010H211.21C94.786,1010,0,915.251,0,798.777V211.21
			C0,94.737,94.786,0,211.21,0h587.58C915.251,0,1010,94.737,1010,211.21v587.567C1010,915.251,915.251,1010,798.79,1010z"/>
		<g id="icon_26_">
			<linearGradient id="SVGID_1_" gradientUnits="userSpaceOnUse" x1="354.1596" y1="582.4639" x2="354.1596" y2="182.703">
				<stop  offset="0" style="stop-color:#FFA400"/>
				<stop  offset="1" style="stop-color:#FFCF00"/>
			</linearGradient>
			<path style="fill:url(#SVGID_1_);" d="M341.997,525.886c0-0.321-0.037-0.629-0.037-0.986
				c0-90.286,73.223-163.509,163.533-163.509c0.296,0,0.555,0.037,0.826,0.037c-28.443-48.133-80.817-80.447-140.786-80.447
				C275.247,280.98,202,354.228,202,444.514c0,57.996,30.243,108.891,75.75,137.95C289.524,555.154,313.06,534.171,341.997,525.886z
				"/>
			<linearGradient id="SVGID_2_" gradientUnits="userSpaceOnUse" x1="545.9019" y1="729.0322" x2="545.9019" y2="368.4922">
				<stop  offset="0" style="stop-color:#E6E6E6"/>
				<stop  offset="1" style="stop-color:#FFFFFF"/>
			</linearGradient>
			<path style="fill:url(#SVGID_2_);" d="M673.724,460.467c-2.33,0-4.599,0.086-6.904,0.185
				c-26.396-54.31-81.927-91.79-146.297-92.123c-0.272,0-0.592-0.037-0.863-0.037c-90.311,0-163.496,73.223-163.496,163.509
				c0,0.32,0,0.653,0,0.962c-28.899,8.31-52.473,29.293-64.21,56.565c-5.228,12.132-8.149,25.484-8.149,39.527
				c0,55.21,44.742,99.977,99.939,99.977c33.93,0,250.996,0,289.98,0c74.172,0,134.276-60.129,134.276-134.276
				C808,520.584,747.896,460.467,673.724,460.467z"/>
		</g>
	</g>
</g>
<g id="Layer_1">
</g>
</svg>
