<?xml version="1.0" encoding="iso-8859-1"?>
<!-- Generator: Adobe Illustrator 17.1.0, SVG Export Plug-In . SVG Version: 6.00 Build 0)  -->
<!DOCTYPE svg PUBLIC "-//W3C//DTD SVG 1.1//EN" "http://www.w3.org/Graphics/SVG/1.1/DTD/svg11.dtd">
<svg version="1.1" xmlns="http://www.w3.org/2000/svg" xmlns:xlink="http://www.w3.org/1999/xlink" x="0px" y="0px"
	 viewBox="0 0 730.778 714.9" style="enable-background:new 0 0 730.778 714.9;" xml:space="preserve">
<g id="weather-vane">
	<path id="weather-vane_1_" d="M414.889,72.422c0-0.93-0.035-1.894-0.052-2.72l-0.345-9.328l-53.115-48.537
		c-3.064-1.686-15.422-12.771-20.103-11.773L27.539,63.23c-2.875-0.929-6.438-1.515-10.345-1.515C7.711,61.715,0,65.158,0,69.496
		V714.9h18.193V95.45l165.491,201.067c-0.844,7.229-0.482,12.771,1.187,16.179c0.809,4.751,2.977,8.641,6.592,10.637l61.6,18.141
		l8.211-4.991c29.363-17.797,78.348-70.947,103.098-116.455C389.517,174.384,414.991,107.396,414.889,72.422z M242.736,149.426
		c-26.505,48.606-45.869,94.079-54.509,125.336L34.423,84.332v-4.888l301.91-60.826C313.89,35.795,277.229,86.122,242.736,149.426z
		 M586.367,341.646c-24.871,45.095-34.802,55.904-64.113,73.907l-8.829,5.404c-17.419-5.232-34.269-10.429-49.33-15.18
		c0.982,0.138,1.963,0.31,2.943,0.31c0.034,0,0.086,0,0.156,0c24.939-0.689,43.236-25.37,76.987-86.437
		c24.958-45.68,36.059-72.014,36.197-91.876c0.086-11.153-4.045-20.034-10.638-27.435c14.27,12.668,31.825,28.537,50.052,45.335
		l-0.533,8.331C616.987,289.289,611.944,294.763,586.367,341.646z M472.393,280.098c-24.373,44.545-55.56,76.144-84.51,93.805
		l-8.108,4.957l-54.01-15.972c1.274,0.172,2.53,0.344,3.838,0.344c0.069,0,0.087,0,0.172,0
		c30.379-0.86,64.423-38.933,101.566-105.852c29.087-53.356,45.628-94.285,45.748-122.306c0.018-8.537-1.669-16.11-5.3-22.238
		l41.342,37.797l0.361,10.361c0.018,1.309,0.068,2.582,0.068,3.925C513.613,197.481,496.73,235.726,472.393,280.098z
		 M730.567,362.921l-7.711,22.891l-12.701,26.299l-11.326,18.932l-20.465,25.99c-3.477,6.404-51.326-4.303-106.196-19.277
		c11.686,2.995,21.325,5.232,24.922,6.23c4.646,1.241,8.846,1.894,12.891,1.894c0.138,0,0.275,0.07,0.379,0.07
		c10,0,18.21-5.37,25.663-15.146c7.745-10.052,16.041-25.164,28.417-47.504c16.591-30.293,24.336-46.748,24.474-60.689
		c0.018-5.37-1.325-10.052-3.632-14.389C713.167,336.001,733.063,358.377,730.567,362.921z"/>
</g>
<g id="Layer_1">
</g>
</svg>
